<mxfile host="65bd71144e" scale="2" border="0">
    <diagram id="rj5_Vkl39ylWkco9xEm6" name="Page-1">
        <mxGraphModel dx="1520" dy="393" grid="1" gridSize="10" guides="1" tooltips="1" connect="1" arrows="1" fold="1" page="1" pageScale="1" pageWidth="827" pageHeight="1169" math="0" shadow="0">
            <root>
                <mxCell id="0"/>
                <mxCell id="1" parent="0"/>
                <mxCell id="37" value="" style="shape=image;verticalLabelPosition=bottom;labelBackgroundColor=default;verticalAlign=top;aspect=fixed;imageAspect=0;image=data:image/png,iVBORw0KGgoAAAANSUhEUgAAAPQAAAGcCAIAAABhnRoqAAAAA3NCSVQICAjb4U/gAAAgAElEQVR4Xu1dB3wURRdPcpfeSEJCLwkdpCOgKCgqTVRABaUKFjoBBOlVQJoYEqog2EDBT8ECAtIUUTrSew+hB9J77vtPZpnb7O7d7V2u7F12ye/YnXnz5s1/375986ase61atYKDg90KHzqdzmQKJcjPzxdQskuZTMRkRjjQLCNFQCApkqEiLJ2euLu7C05wyRINtRTphviLUaIMWUMEzA3x4aezc1pWLJ4hJkx+FMnLyzPSHEEWnyHKGm+vQDzjtTDhKSzitoiLC4ShBflkVMLIyEgPqAIu6CFmRFNMgmWoICtuhAMVxTiHoueK2wiRBDAxZPlZLFFSBiPtkqRHImsvygqYU26SPPkosZsloKe3UrK4QBg5NJLyU4GNFKeNkizLSvGLC1iJOUuW4sPIR0ZQrxbXhspTUnF9kqKLEyXvHJ/MOGdxrjgFt9PDw4PxFFyydBRkd4VqBihpIl8eqhys1RQ1caV8tjiXJJB8e1BiyhYEGo2GkfGZsLvFT+RLK5actg5QSAojaCP/0uQ5rYsvkhFYWO2SNIwJO+HXLpkIAto0SikAhI8nJaBMaJHc3FwAolcOyaaC1FDFhm4hrdUk0JLVsURDlfJLCYQXt4XJQE8oT3YumQv+rOoiNkHcQMYZovLREzeW5hZgT9wAgUhUMPwiHb+ChojrRYqRmyVJTxMFgvGrMw4OlZxf3Di9WAZ+uygCAihoET5bWoSm5OTkFIJYXIEFKQKZDHEwq6lyiHHz6MGvUXBvBMIYgh7V0btoSHgbpfPloedGGs6EZKWMEENg8ZNvVisoc1qpWMmQzrIoJe4FPWHiGb8XVBhahJ6DXlwRsmhF9AS/ArbsEu0lbgk7aAa/AsaCT4ZzsRkQlKL0kok0iy8T42ZEACOsxMIwacWl5LQOYogLChDAJb8JcuglweQX5J/zmbNzQwSSnMUCy0kRVGFIPAEr8Y2jGBqHBbn8Zgog5VfByPgngrICkbKysgopNxXFvZtnIb5SkJhwZaSKqGnFEQGdmy5fl5+bn5+dH/Qgq/XhVF1ePi7dOLNODIS7hvytezJA66vV+Gg8vDQeWnd3eMseBeaDOGWyjoSY63w64nOzZ8v4QyaLvUqkIiBGAPqJw8PtUaB2+xN+UNYCi1ugs1B9HHnkr9vB1NzM3LzMvPzsvPxcnQ4h5vyCzrowKC2ugEshrHghbLzPhSbYuKk3yFjNUBEwggBssIe7u9bjUQnt9tp+OHfDJdVwvn4fEOl3Qa58/WYigDsC+ULlNuK/GhFezVIR4CPQsHyDf0fsIX8j9yx/awmx3Bp3D08PuByPQr121fL10EC/oeBuPRd9Wch+H0jNy+DZ7zxYb7n6TWopiCzhwCPBWW6+PWfZfFmntZ/MLsP8QyE0P3dU6xFI2Tv8T5pIW1UqMIJPo54XHwSgAEvejGPtrV+u3r5Rf5cJKQP91nh5aLw1D0p67a5B9Putz1ZWbfEc8VB49rvrQeh3nt4/MUe/+SBnZmYKLbf4Hgx6ZuCU36ez9LTsdHZOn4SXa3d46rNn3/3uAx9Pn1fqvPx0TEtcbnzvRzErNcXlEfCAcy11jG0zxkPrAc/EA/rto7kf4fXGqnU1Wr4IWrF/0vVgCpTbMv2mlhq/GCMrNKbFN+FMwiV/L+VLm5mTyS77P/0+zp9f9BJ+Z778MbJ+PbXpx37rg32DT946JdVGNc3FEUBoZMD6IeJGjvjpQ1hoWGvqnHwxaEWt2k04ssL+9+QDlyf9e6nrAUv0m9+hBHPKWCyMrJRlez+ndLVL116wOwbnePNsPL4xIzujZqkaslioRC6HwLGbx07dPs1vFt7kXJAEhl3jvrT3oiaRjRmBhwZRvwInwN1t6pGrcZ1bX96/F/ETTr+zHsdPTPknzKOmJ4VCgRaDrPXQvt24297L/4DDVz1XfX1wTXZeNhItZqgWdHYE3vuuP4txEM2mR0EQcNnbS56s9NhmF6Tvqe5D9RuavajzCw+uXo5q1gLKzdlv+N96/SZcDcVPmNmmJ2SEkt/BNBdTdB0g+p7oXSj4YvXWd1Pvvrbiddrd/O7wOnO5qfSuhMDTn7Wk6sFvVNwbMQ3K1xc0804p7791bs9cyJz2ZOSUg1eQ+++3X0w5fCXt4QPot9tTVdY3DWRFiJHXuEPDyehO4fEdgU8CxXavVq1aaGgoCrM8j7e8XAlltS2KQ4DGRjBImafLz8HgJek7lr6dBf3Oh++Rr5t04JKHRrN1wcwzO3/PSErMzc2Cfmt8NYi0FIxfEv3m/Byeft/87JqgpVyHUmDSFQeHKpArIcCNWeqD34if3C7tvbca559As6c2qlzzuZceJcSP23N6wp5zxP/W+yf5GMM34p9QqKDSwg4l81JcCUy1LYpDQEq/b5X2/qcq0W/4J/C/V7/XtcALb31y268BIeGF9RtW34R+Syi34lBQBXJVBKT0O6GM9788/Z7aKLLf6h/rdeicfOfO+D1nRfot0b8krvbjw/TaDVfFVm2X4xGQ0u/4Mt77qzD7fcWvRMjUhpXRv/x56mguPljIPymk33y/A+dqwM7xt7hYS0CjHgXDmmSSq5sbNPJ6WW+41M0uk/gJ+pdTj17dMGnE8c0b4aVcP3rAbdDbkvETAYxk4pQggFKsgVYb7xAERPZb66O5Xs77QJQ3jX9DqGO/bSCafezQ5rlT67d/XdS/ZFF1fQO4QRxVvx1yT9VK9QhI67fPwUii36R/efTqhT07Q8pVHPDd5nuXL47ddUpCvwsDKlxmpsLtFAgcmrAPclZ+vUrJRuFOIbAsIUX+CUpdLe+DQHaTK1nUP5ly+Cr8b0S4PX18qP/N90/EtQh97uJsxfeN/BsAYYyg6dynxUgpJyU3IxfCkFiYix0i/YZ2XoF+69waX80iK3Mw/cTDHZ1LRMFp3xH225B+a7XaQqvfi7NmE7X2JB2aiOalraUzeFrwl35LP0nYWpxdlo/IP8H4zuUKPkcqcf4JNHtao8hC878fj+8IMIEyCxcIF3EDAKcGvekcRRtsp8bWDOFF9htlL1Uk/knDa8Q/4TqPBTFAt4I94fj2m0UD0aEUuiUSyyrNkMs6pCdjjqVeT6G8ar5Xu0RtMvVl34d/oy04mi94Br9HZxzMSsxil4SgwKmgB6VhiVFdq13530UswxakSxL7lPRpMJ5MW8Ojv//DvYxns3ktyJSGxwey2Iuu2act+BFWSsLkOT7vCFJQNU0JqhacdiMtLzO3yYzmWj8tWor2MrZMQgETyoGR8U9YRbQsOB8cT5xyHJiM8eQnT/FZNZrc9Mj0A0a4SVZh70SRfgP3i9BvnVuD6wX+CealwEkprN8rH68xo9LijujXTShk9SRuFdNsSHl25elbfyWQm/Ep0WkcVKWoZgvuHLsHfEVH4uX1F6DZhnIFxIyMr9lI3D9ar+gownfhBJSMg+RJ8oUk6B+yNF6aG5uv8jUbiXxhBIJJyinQ7KyHWUyzwQ2TRQWlqGZLCqasRJF/ovXWXKjkc6wiVvIUzP+mmkvnYBWsn6fys/sCn5uz3GLD45Cm5qaTu46DM0JZeQfH/Xtt4+UyLcsiEe4Xpo9Bk9Dno2SwTDih988zwLPx9Gbs8vSSE7UH1aVk+G0yszm2xWC56Jc0m9/CEDHSOZ1z5x4qWsWBj/5BX3P/KE7LqZDH5x9NT0gDgcDoMlNdb3QjvzJ+TBKc1B/TyLcUSbm5PR6/kW9WLfUUcfQlNZuypVmCWsjbrOBgVR/9+CAuI5qXwsuKMUy+mBRUVb+RLxpO1p8r/xDZb9zs85V8Yb/r3cimOz+QlznPfgvaxCk303fH9ikPTeTep1RKqrtM4idnPUXvMdnVhXdHKQHVbJxX7Vnj4rfncEdZQbz9qWazFPgY9Lx6v1oZtyU6fIFRQeQFonPLuJMOReQrLn0JNJr8JOVQb1RDgXVktRg6oZqNXMHzQOlTb6QGVAig5+zVhAc15Woyn+HNP27w/TR+FtVspARXDU66mITnnFVUrk0F59Bs2h6RfiP5XIF+140n+s0ZbKrffAhgCjUaLbSZ+NkFB04UYsKF6oIHtMDWRL5RFd5z4VZwV8IikkQs8bHlCn0izA1/oqPSq5G3/07Q5eqOzSEeM46a79cpUSuEER6ZTmxk0Q/jYtMADmqB6eVbX6Rk3n+8mPUxOFTXkWWcZ9FltisHKf0+G+mLG/gE1W+ew0kFg0oTh1uwVyDyHGu5qXCegZ4V2lcqhOBjXTSk2SCO6lrVuqA3m0us+83tN25svoaTsytO1RlSNzCKe79X7hzFNM/ieqkWegZ6NZ7WFEwklFLfUzBYCZwTwRvA6lAYrNs+GVL6fSbS10PnVvsm7LcOW1eKBdFPnFKIzQ6MDEq5kpyTkiMZbL6xhSgZOw6O/xeOCrtMu5kW+XoVevnw9MOQ2norK2751Y2XK3eKQvrhKQdyUrIRBmGOCiVGOk6gc+VerIC/ozMPZT3IPL3kJPXUkXV1w2WmUnCTWDdAXJfJFKrZkmSXf7hY5S3iPV/45tyDo/dwwiot37Yi/ujzcCrueJ2h9diyK/9yAf6PHRs4Xb6lC3n8khUpPVGk3zB3pyJ9ITb0W+dOp0hxloB6HzDT3BpK6pM4vIW4Q/Ru4bf0s2XuH7mfm5bD7ujNbTdwXvfDBrh5IEDnkgqMJ+Huvtt39t66d/BumVZlYWvxMAu8CNa0OkPrn4o7dvuvhJRLSTlpudBsZDF/nZF5BXulxaeiFqpM0GxkhTYoiV/0TekAOEwm1CthZzx2efQK8mo0lVhf8YFQIAtoinORAj6NpjQ9+tjPyc8h7aozpN6pRcfvHbiTejUZuwFnFTghzAXHuXeoN34bjG383+zDsAjEJ3F30/p7ArETn/2HPkZEs1IJu2+ChsYcJat2pkSRfqO/eDoK/ol7rYQsdyyqLBjCZAfxTKgfopA4ICRjlun2nltUsxtOIl23/R+R1fU4oNnkvwJHhT4JeAv7lyeJWI3Hull8/7igHHcERgb6lCRPPCx99iMSKQ+tX1LQ3URi3ZENaFQbVdBacFmtJ9mvAsR1BhfEYXRu8VuuQ7NxKqnZ5V6qQGtFQJOeCH5p08DnyNQDLFh5fvVZkKFHi/cYTjLuZlDNDqkdKuhhI9cngrQFB42cNPm4GXrPuMQQPdVsiE1TKJlz/wrigz4aBNBOVfU9V8HbXfvYc33cQii3e6VKlcLDC82/0Xb3cW4IFCZ90oUkPFFF8VsU1iCHilPgehCLjO1/EN7G5shYYpyrq385Y9c/3MAfdUtIhIRJigL0cKjsLlh5cLVgVbOtdl8LDDRRX7K/jwfZv8qb2O+TNf0Fmsx1KKHTVNmtJoHKSEXAdghQ/XZz13lAb2GfdW4aiSgf6VBSGajnbTt5VM4qAlZGoKB/qSv4R85YqOhxNehGkmgJNduqflsZfZWdrREo0G6i1e7ok0uMCJARSlvLoPJXEbAVAo9jJJKWm2zKw9dvVddtdRtUvvZFgEwqob1JptNqz9K+t0CtzVYIkI+sUsvN3G7VctsKbJWvfRHQ71tCdVo12/bFX63NhghAmckgjmq2bYixytpBCMBeE+VWzbaD8FertSECEt+htGFtKmsVATsi4OlZsFOHeqgIuB4CiJZww+9oG4uTlIwks5bVQ0XAuRBIcLtOBaZ9SLLjlHM1QJVWRUAmAly0RI1ty8RLJXMiBPQjlFRoVcud6OapohpCAGqMgyg3HaE0RKemqwg4KQLELaHWmio7mqEabye9l6rYAgSwKY/aoVS1wjURgJlWlds1b63aKiCgj3PLd74T9sQfWXCID1/HDZ0EaG7psSk3Paf1spf8SnErN/+LPRK/i4tEhtYMe/oT7nv3v3XeiLJiDurtUREoCgKkQ4kheMpCvrd95hvpXTiYKNBXaHaH9a8yzUYK02yQJZ59wIipWlMVL0pjzC27uduvENLcUi5Pf3rVSddoI9kIk7WEzQ002Ta6vbQhW3v6S4LO0zOeFWylF1IztMUnLSWZgxWUG3+GeOZm5m55+zdDuZI8TSZiB5/Es4kRjUqZpLSYIH7XjbtHbjf6kNsP1mI+rGBOes7uIdtfWtXeMlZGEKYMce9uH7hVpUtV7xKW7F2T/7toyaKXm8cLwu1y5AvPTF6rha0DK5ItiowcsM5UhykNmTjF37rESEl+VnbBFmSGjss/k11YQ+sIt041vnNu+ee5zZkk2f41fJdkelES8ajYVLMh23+xh4siobjsH+/8Lk6UmYKN6E1Spt4g+9ok7E3YOeCPPaP/NEkvINBd0Qn/rovUXTZT5q/WH9roz+idsstxhFB09/Lly0dERNAE6pmUm1zJOCO+C1GlS/VavWoz+ofnEveO/UtsYlkRcRYrCxrs/fXy/14T1M6vDlliN6btNx08A7wkySQbknEvfccH25DVfHqLknUf77alc/utC/H+6SGuhaV4h/hkPeS2DzbeHH7tlHLbO79nJ5E93HAYKYtcfnPEwrDifLKXf3yNWhAkVmhd8cZO0sPBLX75p9cE4ABk/idQ+HL+O/Hvp2aQj1gcmnMgpEZolU5m7J2bt0S026qvm6avhUELyPzCira+BXvf4dw4XKA5Nuww33Knp6eTQRzaNvk+t9ZH78xc+uk8H7hDn+znI8XOmWQgxh/7yIOAWDKdlcUJO6/zbj16ic2ctvbazK+I0mzu+oukJEj0DfcTI0U1m/J8cWVbkN36l3yuhKvFS8OaCc1mkuwZtdtQLbSKss+UY8Sp8SnQbHqJ70AIFI7PZ99k8vEGSvnSas4JoQy9Q7wZQ9DUH9yQXkKtN73+M2MCzabp7b7rSFnV7vsE42lIs0FANRsnTcY0vbblCl8q+59Tzab1Yts0swQgbgntUMrXbFQAvChw+C1Zv9A+g1mPzZJYDlokqBLZ33rTG/rbIKaUk1KpfeXt726BftCvLAiKVO4QZS4W4AALR/n4hBFrcXgu2cWYHh3WvSKogl5mPXq8A7xkduHE3UN3sIS237xspETTyWRrZrQOHrB3CbKbq6GjzDPltvXZTOxF4T3YX1zVjhYR750pyerOoTv3j5EtkhV7oL8hXzboM4mWyC8gSdl8KtmhPX43F+OTpOEntox5Hm9PpOybov9+kslSYoLNb/wS0aT0S6va4dUpzvUN5/Y+FWcZSeG/1Dgyy/tCRuoxnYXXEWxBuVYV8CY0YuDBCP1skMG60weSscbXpExXw6OIaBhxatUJs4rYgZi5cKjLO9jYQy4Qht5KSzqUfEaJp0lQD/jSxKBI/YeFDDWe+oV0F2pDNMbTb+wgz1K9gQ3g/sLLFxOf+eqUONFkyvZ+W/g0lduTj3nSY9fg7SaLSxLQr/3SrCcnNGc0h+ZI+2+UgL6OGg5vTF0RPme+53bxf+eQVadfXVj3zAcZkgKwxICy3Hd2JMngqKDHeefQbZaLPmXLz56XJLZb4s6Bf6Cu9NtpltXoXrZs2dKlS/PdEjkdSuxRjVGY44uOPrr4CBXz7wEsTbmW5RuOIJ9ypAeiK9t6b4Y1qjugwZ1Dt27vuyUoQslQ0CvQq83XHcQtub792vHFR2k6rUtgz5AoThHzYRXxsyjDjHsZOz7YytLFtSBsj+AmrYXl+oT5vLiScwDE1R2cte/OQU5dxAxhbg25HIbacn7d2fPfk927cYgZ8hPbfvuyp7+nQCTG1lCHcveQHczNaxXb2lzzL0agiClM4Gpv1qzRvaZxboIOZWJiIlHuUqUKxXpNKzeiCrwID1+zUT3/9lNpctJytvbcxJes/XevYNtZfoq4lPGWiHOLzkHMU01xIgSg3JCW+ZZQbu6zIWa1oeNPwsF2fnFqRDH+xzphMCGCB0BQ3a1/yNctqr9l4tE0S0iVWEWA205Noi9VBGwwpQTjf3Da5PC4f/ze4XkHMf5UvZuq3HIAU2nkIiB0S+B8l59SWW5plU5FQDEIiN0SfSiQGm/rmnDFNFwVpDgiQPbnpgpt1jhOcYRKbbNTIcCtoYTM0GxVuZ3q3qnCmkCAG8FhDonqk5gATM12HgS4b+Iwz4SacOeRX5VURcAgArDcWgsmThnkp2aoCDgaAb6l5vYtoQ636nY7+tao9VsNAf0yM3jbpjXb8kUVVpNY6YyKPotQBdnkPZYHMvSZ+1QfNeaS+q3RaUbVH22yRpWAIbDqzBf3csybG+3n4T/0iaEqhvIRiD2xMENnYiIkN7eEWm6xcrct065BeAP5VaqUQKBfrXfxO+f4bJlofFCjf4h3iExilYwiMKxu9L2Me6sufGEIECgzN0LJ1Jqv35E+lRWi2ctnL0Ubdv6mX8liqEnKSf+gen85wrxZqatTaPa2n8hk9xMHj8tplH1own3DW4W3EtTFV2Bur0AW4daHunVuXau/ZR8pTdZy4zJZnfDwHlmXcPnc5ZSklNTklO4tu5os6ECCEJ8QySWhfJGwNiwqOMqBQsqv+v7t+yBOTU6VX8QOlM3LPCX4LjZT4NzcXGK5oez0QNybKX6QzsQ2EVYXvXfr7tBX/EEMMKfWesqgieKKfP18A4IC1/61fuW8z5H7brs+/dr2/qBjP5xTjV86cxEttXbJN5vW/Ta4S38w37PV7L0KxFWbldK/lgnj3bliF7MY2pr4g1fepbcgL5fsAzEjehp+YyYvsHW9ReHfroz0YhFouX4dOypA3Jsp98AGg4pSpWVloa8oCHzpiUkmp46QZX+frJobUbbU9QLr3vHtV/H797Y9uBwyaVj3Qb2g3It/Wk7ZPttW+BYzWUVRCEJ8JNZ38hnWCK1RFP62KGvuLbCFDGbxrB/RYMvtQusDWXGy+p2abSTxLbdZFTiKuGrtanBRSoSR3lh4qfCMtIzuA3vevXVnycbPr124Kmn17S2qGtqzN+JcfWTiFNtxijoDDpKEq/b+3ftXL1x9ox9xpv/cvAu/F06eNyQSDPzgScMCgwPfeaknaN5t38fXnyx6H95taHBI8JINy3NzTO+xZIh5sU1HlybpYVKDZg2BwOmjZJ31gd37lI6GAQviHh4ejmWUVHqq35WmV8HlmHpj7dwkuMVf71xr50ptXd2cY7PdDA862B9k4+2Fz/35rwaDa8bLOjCXgkwXK0AM2qe8c+dOUbd2cGCT1KpVBAwhQPVbvxKH0vHDhIZK2ijd9cy2jYCyHVtnNNt8NPSB7IJUEi2hCs26lbbA7nTUMVuwtQXP2pfr24KtHXg6C8ieuZ7Vrus3T7UFMlBm4pNQnab6TQfhbVGZytPpEPi2/7f93fvvjDV772BHtZRqL994E7eEXUPFBYbdUYKq9ToWgVU9V+35fA9kWBe9bv8aYzu/OVZOI7WTUCBTbgd620ZEVLPsj8CiVxZRhX6qF9lsFop+eL2Vd9G3RaMEphlmmht+Z5WpKm4L3J2I56yms078RsZ9+33br1mvZq0GkDHdz7t9fuGvC07UCohKfG4oOPvmk52lx56L5v0VzDkxeOjczOOWa5SbwWpcOWPB8wuuHbyGFr7z5TtBEWRyUcMuDZ9+52mczG81/8q+K87VeG7fEhYqsZvlRmfFAqQ++vujKi3IGJPggNgDPAYIU2VcL9eRaSfqAQTmPjP30t5LOHlvzXsB4fr9jpt2b5qTmXPw+4Ozn5o94fCEio0qKhYugWei97mdoit5+xy3I7AAXwu+o0A52O1hVqxCUMEmVp1INXvgTwP5mk1zW/RrUa9jPZzPbDwz8YbEhuhKax2UmVtDyW6w/e/08G3DZeLy9XtfJ143Dat8hjFtYmRW7fJk4yqPS7xGsB3w4wDvAOkPGLQe1jr9UfrFvy+Oqzhu/p35gRGBSoOFb7apJ1JohBL67hT2W2mwOrU8TLMHbhjoE+hjpC0dJ3es1KQSCEaVGpVyj3zUT2kHtJcZaPLBJ758VN+VJrEqj+0QGBE6gtpsvPG8/aVtNr/2zrM6h1cln/gaFTEqI8nE+lzbiW2Is9DnZqZakGGovJruMgiMLDky/WE6mjP0NzMW3vdY0qNkVEmUGl5ieHaGsc/tOgQovmtdaPjd/j63Q9qvVgoERoSNSHtAPqQ0+JfB5n77pueynmGVyBeih/qZ8VTYGna+9up9bmq8VW/b1ugrh/8gr0HpicRmD9syzNNH+F0oOXJGPRVFyUwugpbDzSo0zOGmWo5LEuemh1UqUJkoHwFodl7BGqXordGWWbS/V/59aP0hcBj912gjHyN2OBRaOkjpcDlUAeyDAByJImr2H5/+cWorWX42csfIqs+a8WV4+zSQ1kKNN7edGquY77jYUxq1LjsgwEaF5Y8GCKTa8smWs7vIhzDH/DOGeSZ2kFx+FUyB9W6J/MIqpZMiMEDDTU8YvlXuwJmgpb9M+eXyv5eROOm/SeXrl1caDlBrfu+RTJzCoTQpVXmsjgD8bOxuBbbws40sWDZS74bxG6hmTzs9TVKzx1QYY9l8ISOVmpUl6D+QQRyn26vErAYXW+LxlcdPe4LsF4UDU8qonw1vxLIe5NrBa68dIrMF59ycU7pWaTGqwwKHPYonH0p3rH7zBSNuCa4ta7C4hWqKchB4cO0BhPm4/sfxJ+LpbnoW+9lf9Pwi5S4ZbP/03qcBJfWzBVljodlZqVm49NB45OflQ7+X5y+37P1gRQA5n0QNBVoRU0Wxij9eVM3GfDWq2XMT5kpq9lD/oVSzh20eNuz3YdRQ9vewZD6zdaHjlpmBKWRS4yTWBVc53Cy22av7rKYzMWMexQSXCRa3aKDnwOx0MgKPTqqHlnTeiE9fcCjBP+F6k6pmi++cC6RArS3W7BXdVyTdSgIIizMX+waTfeoExxDfIVj6hMToLYU6qcSz9yC7bDlWv6HShfbnVlVceAOd85q7j4a3cTPZLCyaTLtPZp7EpsRqvQttBUzLDvYejOU5RLMxzFmgyvyDqHvBYdnyKAE3yy6xWIGsoURhVa0tQ1CZpZJvJ0MwdwJ2bj0AACAASURBVEv7dFj9TmcLLsleIrl2ASY5NzsXVRgJv9A3BvTKbvYbmkwPqswkFMjUWtVvZWqqBVIlJRB3QlIvTXKDZudmEcXF6lKNp0ZML3+Yk3lEbPxIzM0WKdRe41c/gkOTbFGZytPOCDxKICFnSUfZuCRLOi2hmg2bLUmpH+aUtz6Qs9/5OowiSTK0XSJRbqbTquW2HdB25nz/Kvl+jbnKvajjIhr6WJa/TNpme/Snw5xmdVIpMUaR7Ox/k1Ag23Oe+it2vg1qdbZA4M65O2AbWNKMNbwL2y2kbvSyvGWS73CimgV7vJul2bR1ND4I64mguC3aa4inOrHEEDJOnE6VO6JmhMw2LGy/kJpkotmi0AeYYFCGvtgt0GwUx9MSXJqEyembQaZURSTT4lC9kSKCqMDidy/chVSlq0tMAhFLC5vNaXa+tM2W34MUM6cpn3f9HNtC4Hxx1mJDNNZNx+MExZYIYVq3GpWb/RGg63Yjqpm23GzzFumdt3TEZkN+mHMWuja3OeikUoO9JGeJRisRfjGXoXF65lORUCCb8qqacOOoOVFuTgYZXjG5OJIGRkA589JMydZxmu1uuWYvf2M51ezY1Fg7aDa/FdyOUyxJCR80k0RZTTQLAWq5H954CGcgIzmD/CZlZKdlZzzKyEzNzEzJJCcpmcwDnlBlwsKkhT5BhXbkYd4Imy5ilgwgjusYl5dNFmvCG9F62dxHEPeDuSpVs23unVMyPZ3y8dW7X8kXcvEriz/880OO3hreSNzLcXQSuaFOqnzZLKOEpXZAh5IOMVgmMSwQivsG+bLhN7QBo80URwt4ghue+BJlS1hQVrFFeizrsWbAGojnW8IX81SxGbF/Sf/A8EBs8BcQFoAT/zB/7HaJWCHS6RZqE6ImYIc0ZMHMcQFp94IZURYdxGYXLLB34MRu+NucctPeJf21qDlyCxVxpsEPI3/AHyqbdWVWWOUw3ImBmoFy65aiG1ue+9ymdI9Kqojy01r2b4k/s+R8cPUBdkhb8GDByLCRKIhlB5icbRYHRhzbPhZLFnDpWEihzMI4t9hxsayFhkp1md2FZqEDXrWFGRsD9F7Zm78xEjQbfCCtpy+3pwxy345721C94vQOEzqwcbiwSMKt2B40dIjmU80GkhZr9sK2C5Wg2WgLDB9RbvzHP2x6j9uOafvk20+SSvN17ca2M6sutgcp3DhWcFH6IhrwgaNZqkYp+Qyrt6pOX51+JfxmXZ4lv6DrUV7eR9a008PL18usrQP5aMBm087b0ryljkUJYhDLTaVhoggubSHie2vfo7vzYwKafP5rBq6he9shXCoYRaNQ4mlBJ0Y+w5i2ZH9uQPDZw8/kl3JJSqrctV6ohaVig362cIYTBoM4m52/3OFbKuC26t0SO+g0Xy3w9Qm6IE/mDvA743beu3QPHGKSYiTDpdS9gyVe/KqsMTC8PelMCUwSckl9NatRN47eAH1IhRC6VMysspQY95EOc5IbIVy6YAG/ohaBZkOlOZ8bF0XlZ2Z5LKX28CS1m9Tvk7+fPP7rcVDOuDgDcRJD9SzNJa9CLA/B10EN0dB0cid0ZBKQY3s8xoW0Zy5dmgDltqxSE8OcljG1tBTVZHp/yZRXnNnZclPJl2Zznhn1ECSbc+f8ne2fbUfWh7s+DK9Ctj03dKCDH5dG3JL7V+5v+niTIbIVb62gWarNZhClPSQryvxD/Q2BZiRdUZoNOaHJ1CfRuyVGpLdpFmc7dW6S7nJaYtp3Q76DAK99/Fr156qblMTLzws7EIDswp4Lh3+Q+C7o+pHrwRMEMPP2f1mZlN9RBNRy+4X4mSsA1WwgqZx3IN9Ye2B+CdV0cxtmLXpqQeEuL3+z0FfzML2YWll8CrHDxA4yq8MOBCN2jADxnhV7+EEApOAz5gknE3ACAw8zL5NhcSCj34LzDzHPcnPvW3c3pb0DmT6TiVOOckuo3kAUGtrD6CM2ymDKhIUhOIcrgk9smaVhNVvX7Pl5TxT5ZfIvyXfIUlkcx387jj+cwHGHgTeLocsT6wo612zEQE57ic0uWLtAxiAVeRC3RAmTpRDaw+YYgAgbZWyaQdxl+r7zDvSGLloA3bPvP9u4a2MUXNVrFeLf967cg9nGZfS2aOOOuwV1uUKRAjWVfyjQGxELT5QbMwP5GY7yRLE5xifXPoEk+MY4xQ7Dh7HJsWKhZaZ8sO6DqOZRII7tELumP5lo8crUV2q/VFtmcZVMEgG85NndUZo3IhAYogpdT4eETahYoRVDJxyawEQ0tABbEnTJxDH/jmGbgDXs3LDjlI6SZGqifATI+ABmnmg9in535FdqGSWx3OhQssJwURyo3BCjYuOKcJeBnbV63wiewMMG2wE/mee4Wwaoa5daN3wdbeDSHAePrkviLIiLQJNtPoVcUg4jiXCX8WeEwNwsGvw2t1QxpEfnBMsXsNAhJz0Hv/jD9q1Y1oDgKQLhCBfSaeJABruX8Kf3KBarQsrt8CkBioWpOAiGzonMZmKkHbpuQVxcJn/LyOjwDSsLl0Sv3EoIm1jWKrVUERGAH8isMkYAsPgSYUFMD9T6avGL8/CocMwxDo8MD60cWrJySfqF7CJWauviwjWUtq5P5a9MBJTpQxcRq0LREuqTOCoUWMSWqMVVBAQIkA6lIDxio2iJd3ahldXqnbAFAs4CsneOty2aL7bLQp/bRspdJb6GLdqj8uQjUMxBFnQogQyZ8srvSqoBE/WBcRkEyAilQL9dpm1qQ4o5AmRKIN9ZYW7JqoMrizk0RW9+cmay8TVXF+9fKHotxZzD+bvnDIGs33yeYsQU/Xb+7WKOWtGbH3PAxNLj78+TpRjqURQEfri03lBxoXIzOo2Pdv0Rbi6BocJquhEEMnIyPAO4PVUMkWn9POMfxhvKVdNNInDq1imNr/QUEjJxCn4Iv0OpP3d3u5h/8XridZMVqASSCCw4PN/kYnJMZP/qwpeSxdVEkwjk5OX8fGOD5G75KFsozi0OAmLnoW8vfZO6J3XWa2SmtXrIRGD136sStDdhleXQa320M/fP8HjgPq6DfrqvnILFnGbOlk/yQvPgXxjBwT04ODgiIgI2nPYsYblrznuCXwCzZHLTc7OTs3Izc93IFnDqYQABdzeNj8Yz0MvL39PdzDWaujxdTlpOdkp2HkA2c12MAWlcNNnDDetaPIO8PAFy4S+cHI8+wg+N3Lt3T6j4YvsNFvAd8SfOclH8LG8W+a6pRRvAuGvcvYK88KeCbBJ9mSCTiVPiQUtD3OVTGuKgpptEQAXZJEQyCciUV9qDpAYD5yq4MrFTyRSLABtlF66hVKzEqmAqAmYhQDYtoQWo5VbNtlnwqcTKRAAOCPVBCu1bovZmlHm3VKksQADKzI1QUpuNX9V4W4CjWkQhCAiss3DzeYVIqYqhIlB0BArFuaH4qmdSdExVDgpBgCg3XBHWoTTolujcgrRBHm5qdMXgjQOGqfmpeW76TY4MkhrIwPBEkEeQwVtgoFSxSs7X5Sfnc5ubSjYcd4H52KYHcar5V+9ShfsEmSQ7NVGAwNnEsz/HbzQLlhYln3mm7DNmFSnmxLvidx5IPGAcBPeAgIAyZcrwiWrMrcMuo2sP99Gqa3uNYyidO+f4bOkMUeqYety3MEU5aoIJBPggY24JpaaW++HDh8bcjE7lO6mabQJdw9mj635kOFOfA/Mhh8y6NN1bdrUuQ0dxG1xriKGq4Z8UGsQpRKdzqxFa01BJ5aS/1+Ed5QjDl8QDe5/nmJhFicmATmE+Du89pMznIcAzgH5FjSHP77EYtNz1A+vbTWky0zP7te094NX3kh+RvkKfF3osn72Uodnzubc+HTf37217kDX0jYFfLVzNsvq1671y85cXTp1HVlpqWt+2vd5t12fOR7N6t+4+qteI5Z8sXTQthhLn5uQO7PT+4M79M9Iz7NauUQ1HG6+rd9XexgmsmAsc1i77dsTb+o9ev/9y3zWLv+7eirPigH3iB+MO7yXfEgLxL2s2MpyB/4TPJlFhvlu2pkerbrs27UQu0O7bpteva3/+FnwK3gYH9xyYN3Z2r+fN+JRzEds4qPZgPgcW7oOWC6e8Mrp2Ue2LWKv84tDRtX+RlXDkBvy1Picnp//YgfhLuHZz1WdfLFxPProAtX6mzbPlIyv0ie579tgZytzTk3wAZMrAibT4yk1f4iuVUO6vd65l3N4fQz4Of+PS9Xei+zV7/in5UhWd0tPDxHqFsoHlil6LHA57/9hDIerUSx8biKpRpcfg3vj7fPayd0b0fbFTm15D+1BuUxZNL1k6/NqFq/Ry4sKptRvWxi2I+x/ZvHjNn2T94Yo5y77Y8hVOZkRPm7hwyoWTxMR8FbMKxKVnl5YjlVVogryC+Hz4ltugclul4iIygZY/evAwLIJ8mJ3eGz7DG1dupCQlM+tivK7ImlH4u37x2oavf4yePtI4sTVzsfLAohne1pTBzS0rM4sy9PPXf7KMfa42PS3Ny9sbmo03J0z7F79/WapsqRIlQ4ZOJf0BmQhT/ot+JB+t3fjNT63aPxdSMtS6rTDIzQDInFvC9N0hgzgx38fNGjlj0fTYyYum0Qb8u2MvMK1UtfL8bz7r/UKPf7aTS0HbxvT5EBpP//q82MNgywsybly+Pmf0rD9/3/3UC08bp3TJ3NavvAjvDjAO6tyfNfDMsdN/b/2rV+u3h3/8YU52zti+o3FZtXZVEAzq0h8OBorgHLpBQf521/f3b5PvOBs5Zo+a+f3ytUf/OeIfGGCEzNZZkJkcQUFBpUqVQmVMrekyMwfGp6hzYuv224f/nGOzjVhuB4Jsn+bbpxYKMg0FMjOdmJhIFis4xFrbp9lqLcUZASVOnBK718X5DqlttwwBrFWwU4fydNQxy0S0f6nal+0XA7Vu65wFZJsizJ9bQuZzUzcFqap/Yl1tU7k5CgGqycIdpxwljVqvioAVEYC91rslzGarxtuKEKusHIIA1WH8CjuUqnI75H6olVodAaLcLC5IuStTueVLlZ9nYq6S1UFUGSoTAeKZMMnkK5CdG3Pt4LUBHgP6u+uH1gwJMMh70EDtwN9n/W6IQE0vPggUckug6QrU79V9Vs9qOovekuTbxtYX5eXk5WWTJV4bJ2wcU35M8bmLakslEShkuSUpHJs4LGjYvq/3QYbIppH4Na6y9BkoGVkSlI9uPsL3yR0rvFq7wxEgbgkMNj0cLg1fAPghWSlkLlv/H/q/NuM1nMCfNvJuif8vHjQ9l/ccvpXMZcMcdnDIycpRVKNUYeyGQCG3xG61mqwo9UEq87Chqb7BvigSVpFMfJ32BDdtUMBk3zfEwOO75STd3W34tuH0fIjPkEv/XjJZY3EmANT07+hPR43YDjFEMBxxL8fRsmd3nhUTOCqFxkiIWyKIljhKIFbv7sW7Pyz5IS69/b2ho2xKXa+VvZB46/QtSQlX916N9Pe+e4/lDvt9WIUGFXA59+m5C1ovkCylJvIRWPb6MtpxX9l9ZW5WriFwEk4ljK0wFjoNw3Fy80lKFh4VbojeIelUqwstM8ODS3c0dohAqHRyjcnfDSEf+KrTrs7ADWQFjfjYEbNDkJiRxK0c8yuhn4kPmtfnvt5xSkecnNt1bqj/UDErNQUITDw6keLAvuBz8LuDg30GQ33HVRqXlphGcwE7NdJ4eT6Mf0gTI5uRvhCOsMrkvaqQg7nZpvctsZvEiOLRKHWPpT3Cq0hYgv7r+y/vunz9iPUvDH+BL9WHEcTSt+zfUixq1RZVh20eFtshNjs9G/dmWd4yQ98HEpctDikH1hz4oucXaKl3gPfAn4g1yUrNQrjp1hnyhky8njgybKSnj2dOpr7rAgDbjm5b8wWyeDwvNy+uQxxOBnkNWpK9RGmIFdp8HsI5xEtBCA8hagpN9NZoQzL4liDON47U+6kBJbmFHnhMaQSw0euNJMGFQYJ7s7DtQlAihDLz8kwaUZEkLlaJnzT75OqBq2hy9VbVO0zoQNsOLe+2sBvOAde2+dvO/HHGJ9CHKvc7X75TomwJPkRYqBa9JXphu4WIwxLbkb/M0L2zJ7BMBi5awuq2v1tyZvsZqtnoAkILjaPTcgAxz2PK6cPY81vNR4pfSCGHRAwlnpmgUmQl6YSoCWsHkuXDxfyALlLN7r2yN9NsPia4EdePXEfK1NNTabpAs2kiDDnrvsNlv/HfDSUASz0TotxohnGVsp24se1iY16KAf9S1UuhC2iyokZdiHnOzdZ3dy7uuYiUD9Z9YLJsv2/6tXi3Bcj+XPYn3rYm6V2VAC86aDZt3dBNQ0MrGlzGm/aAONx4SaJzj5N7lw0uoMS9K1Ob7Fs2o+GMz7t97ljoaMyH+7ICVXMIZB+zDWTpCMtg78Gntp5CvS9PevntRXJ3ugipEIIi856dh99D6w6ZheOT3Z6kERX0k8gN1rlFB0ezO20WKyclRqyDvidhzmBxNZ4aOQ15ZdorINsye4sR4m4x3TpOJt33w+sPA1UjlPbJglYXipbYoVb6VGGEBa8waoDRj6n2bDX5Vff6nMQEL/5NDPaKt1bgt1ss8RFlHgFhAXBRKHF/j/6ZyZk4P/j9QZnFnZrs2/7f0oGCEuVLMBAMtYjFoEDQakAr/D64+sAQMU2v+kzVQT+TvhNQdbjJkFBuW/sn/xv1PwoE1XIYD/RgjEPGzwW+se1jWYqXH9mUZ92wdQfXmaGd1GjhW52Mz7possuMax/DQ4bv+Zzs2tV6WOt3Vr1jsrEYcABNuzHt8OvlT3CWc3j5epHRiYID+m3yeZDD0zIa3GXOcjOHhOqcZezklGJRaow7MhTkFATNzrid33zwDU5KlCuxXLccJ3FpcU++9SRO9n6x94seJKQl/xjy65BKTSpR+pS7KfILOiMl9CzjERkNQKvrdawnpwnndp8DGTxGPjENTJksTmxWILFZ4yPHI7Bokt4WBPgOpd3dknzy8Wc0HjNGzGrSkk5Ljv96HEVen/P6nPg5rCx86AlHyFfTU+6lICZlFs/Oszqb+4CZxV8JxOmJ6ZyHUDArgf++kiMes9nl6pKd345vIrdAzjHwx4FNujYBJWYgjy5tYs9EOQzNpdFbbnNL2pVe5xbTNgajMKh07s25bT5qI6i9YsOKy3LJLl5w5WPaxPBjKfLlxERC+cTOQvnPqn9GhI2AtPD96HwymZILtk5FqT6ryDaCf6/8WyYHkD3z3jOIUOEk+U6yPSdpFgT/yBpKMrfE1q4Ig+PmiZs4Z8O8cmDCgBk0G2ENHHBFgssGS5bCt9ORS83Soo6L4o+TGYIyj6jmUaB01NtTppAWkE2rO+2rd8lGlXXa1qGjj/KZXDt8DcT8cWLqwmGwRj4TUGJsgb4b6SRN8TNjFjeziIlbYs8dp1b1WgX56r8id2MQ+CFLuyxFEf9Qf+pkG2/e4szF6LCDBt3Wn8b+ZJyY5bYZRV4FLhYwwVyGhJMJaBfmMrz04UsyoQAZLB3efvRRlwxDIXfbvG3yGYIS+u3pSza8hf0+8gP3/QOzOFhAzFluWtIOQe74Y8SgthpI4komD6zBQQ8SZE/1eWrBA7nT+kbvGT3kN7LbPkbX4jqSaQ8mD58g8l0UI/PgTHJQGgGcbDpLJ/r3aMlZOoYExmQSzFNguU+0f4JPyYLip/84TY2OIT7i9ME/D67cpDLSMTsoZtqnYgLrpuARhT7bu0Mpsw0wD0m3kkA87ew0TGmQWYqS1X25LiZI4Rxde/CR73Tl57rU4mLYS3hr8qHbvWT31+99DXoWnIXLyi/Ot0rEXWxDhpblH51mdaKzg+7cuiO/lAWU9I4rsUMJC8pQW5q9tHQNS7Yxx4QHuDF0vQJMkcnOIp0qiElCFkCpwCIR1SIg1a9Tf5Uv27I3lv238T/QY6AxNoWMJNAXGp8D4lS4bN67OZkg5UH0Hncq7SE3J1ZOXTQcOWupPtglp5TFNB4aTaEBWPl2ztwqt87ZiiKB4YFGCmJweNEri0CAx45op2eRXixLc5fSecZf9v1yzwoyfmHoeHkiieauG+4iQznTz01Hcy79c8lQewXpeP7pSO3chLmto1sjF+AvTBLGVbU+WqT3/aov7g7ejXRi5opuK478KMuNpqulMOde8EKQKaR8MsqfuCXoVPKL2a7iXyb/goro9ANJQX+e9DPmaiOrUuNKsA2SNOYmzroyq9OMTih1+IfDy98g4z6SB+2G3jlv29elZNW2SMRNpPfR0MIlVikCrMxzI8GoMtLBKEkhP7336YsjX0TWX8v/+qofCcsYP6hy0wfPOGURc/VuCTqVReQlszgNP6fclx4LXPza4iv7r4BV36/7jj80XiZPOWTtJ7SfdY1sDpGRnMHvLfHLuoxas0bNvTUX58bfRWd2nMHQGMjgZMsJRonRfvPTN2dcnIF0rM0xPoLGxoADI4y9usVVWJwCq62fX0G52Dpm8tu032hFMJYY2qUGhjnZiOWZO4Qmp/FYXIzXKOJQNM7FRiX/+eofLEWRw8HpaOjkdSI2hgikepUr3l5BZ7Q26NTA0Io+Oa1GNAavWUyDoyNoWLsgudbpy35fglvvFfb7ehv8baFy286QwzZc2HNhYZuFdFkHpvVRO0oXt6PlS3OWmjW+Iwd6RkO7mHQgGvZM8L7GM4Y9IZ5536U+UA2fYfuC7Uu6LBm0gVvlxNCg65JwOfbfsZHNuXWQZuHJJwZ6uLlD/IbkZOTAfneZ3aVio4oCbnRSSov3yHx6+xz2nluCqa2LMhYBiPl35ld+sjJtJJtaaWjbBmthsStuF2XFNBvz9Cf9NwnywPa4mGajpfAZ8JudRqYtsAPxb+Zk414UXbMZ50Xpi2q9WAuXGD7bMH4Dv9Lvh36Py9I1LQl88fnIPKddDm6xAitju1CJQCw4XuMOjINWYVVpu7FkUiUOIws9ZLbKONn5P8mHEnE0fbtpXHocav/k2ifl65c3Xsqpc/3D/CE/m4kJhNmEYTQfK3+t27rhfwwf8QeZynLt0DVsacKY3z53G+fTzkyzbnWGuEGN6SF0SwwVsFE6Br06f9IZfzbiz2fb/3/mzUO0g0i2rgLzzLBJw4nNJ7BfwI6FO05sOoEa8TzjfWWjqmu+WBMvhCG+QzALBa8ILIk4v5vYFJlLfqwoFbf5PP6j/UjYc7sZb3Ez7n9z/17EPfR+vO57RXaK9PAjYZyk35JSzqaUaF4i4KmACz9f8ErzqtSrUvz8eI9cj7Jjyl7++nJWmazgw8Flx5XNupJ15fQVnaeu1P1Sod25dYGp+1IT7iXkeef5XvWt8EYFTaisVVVi2Zw0hfXOMROBer2YptesZzObNgcvBLwWSBdTp2PhqU+ufmLTSvnMaZSCREtwZusIiZxW3Ym5k1gnkVJmh2df+fFKlV5VcAmAUuqn+Fz0uX/6fm5krs8DMg8EKR6ZHvHz4rMaks0Ek5okBf0bdPP+TZ0PmT14N/RuqBtR7vz0/BvJN9xICbeMyIzzh8/Xeok4hcXqGPXXqPkt51PNjk2N9dR6Xlp7CQgDBP9z/hWHcD2/6wuv55bIjeoTlTAzIalpUo3mNRI3JCa5J1VqV+nusrtJzclUiMgKkT41fahB0SZrq73OLQ7U5eku/Hohz58MmAQeCyw/inh66MaMihiFSfYUbUPTOa14L6AqVK3BE+eIlgi/rGDFysxiFdCc24eElsounZ2fqp/pkXUnC9pJsgp+cOT75Kc01IfMEw8kIoVm6TS61D2pOL//5X1+FEyTXrzMNkWDrU+FNcUi9vM7z1PNRm5ajbQ7sdy4VV5gHt6BmVcyodnIcvch4UPchaTNSVSzcRl/NB70IMN5blBuwidk1iGOayuuUc3GOewOXrY0ff7d+Yic4Lz7ku40xaa/TLNRC87tHS0x0ja/xmTjkeATwaUflXbPI8g++Ea/HDWjIqfUHrzd8kHjk1BglnGfaqe557v73OQuk/9NRmK6Nh2//hf9yySV0T7S+l7zpcTF7RdqjT/aar9LhTZ4SarAKSLJdXe79wu3eYO7Jxcbf+jJ7ZyG/JySOQ+r6C+puYHZzqjy2OQU1BHUluwPQ4+2Y9qiapnzQFmpIp5Q1xq/hYYnaR+ziKwtKw40y7uXLzuybMibIf5nSB8/P0tvuQGru8699MPSvqF6BQ28HBjZJ7LEKW4PpPBb4ZHvRGpThF3kElVKlHijRLU3qvn5m9i4xzLJnauUf4C/10OvSuGVwk6HQfK8gEKTL1Jrkzce/8gJz/G95Rtw+vH+Xl66oKNB3glkfWR2GPFtMo4VaLbODR+NL3mxJE7YgyFgZc9L6qIIVcGeEgjqCnyRG5jVehKp8tIL4V4hqIJ/G6L07AiqTCyE/xP+j3RkhVhoD+Jn+531S34yOb+q/sFIOpkU1CYIZinsXXI7i/lR4tUSYaEEB78Gfg/+IO/GvJQ8TaDeYQs9Fho+uNBGjZV7VwbZ2a1n8XUwr3Svch+VyzidcfXmVSTqcjFvmvRzNPkaz3Ke4QPDA0/ZaXTd5H3UarXCULfJMjYlyL6enX4iXZdN8HKvXGjU2L95Ic0GgXcksR++DTlbTg2GV7B+EwKvVHKeWjf15lyyvE09gAA/XqRJE3ZCYJJLjSrl4at/n2uyOBptIrE4CDrh16cG5/4xSPM0edB4klVHmOUo2BEmKWS5+S65nWXS5egur7ucXapgOK2usHLxbQCFZwUyBkFlpm46KcZ7IgLqBSTpiE+Z3DBZF6MrP9yVx2uEkBm+zrmTk/hrYu7tXF19YkT4h3+G0IJoszgNQZcGlF5Bwg1M8AZwKxj5hS2vmF7Rv4mQg2FBbJujoJU4N2Nucpot1WTLnrqgF4OYC55SJ+XeEq63JFVDcUlDuOPi8YuJlRKTmyWz+BJrvE8Fod3V3i7suBZ6m5Jy7lp3jyzO0l9/eD39EOnEO/aAttDDTvNdTbYWISTQwJEo71Eesz9pWgAAIABJREFUMROT9DIJqrSvwoz6o1IuuHmDTBwoGfy9xFrcYIJkQW24sA/GFFeSniaWK0G2NKFH/K14I5Q2zaJBEn4VilBuvCipOxHVMSrwhUB3L5F9sBQVuI81XqzhnkMYIjRrKRsXKZf4c4Fm69zKZpet8WwNSWfPgqYGPBMQcZMsbMOR55OX/p/jjTckgfFWhHIjVkqhsUUUCe/NqLpRlH9+mkstATZXEbNvky6NX4Jf8MvBHj7WvPVh74RFJHD6nfq3MJ5orpxFp4cVV4rP7V54On1GYKFBAYub+mgD54d4lRN2gyzm6dQFs3zI4KJ3CrfzKBtWtEqjwvqE+VwvcNmF3VSrsDePCcy2xPC72HExj2vRqJO3JydtS8oqS+5B0Y9H9x4lLEjIS8pL/YuzJXQyVtE5OykHTMiB5PkZ5PWVk2CdL3SmHUpj70Pve9xj4xB8+FEHqHFubq4iPvjkWdbTjWxC73ZTdxNGHJNA8vzM27bLEJpJdZOSDnAjzCRyYjVn3lCFik739vBOc0tLrpPsu873ge6Bm5UGtc79cy7kRIh3ee/UWsSI+FQVhlwcAgrxufmm2oFm2+ue3nMIuRliCzgwXG8Ltk7E068emYCg89LdDr2dE5ZDR9GtIv/Dug9vh9ymJimgVaE5cFbhby4TasUL9SpodNBcRlahL1efCyf5XfULH1Ro+Ndi/v5u+gEF37u+pUfZaZmTxQLbuiDmxLMqPLI9/BKtP9nGJ9FHOb6fItwSII5h21p1aqXsSQl8n9hXNvG6xCslSrhxU6PYjeFPy9aGavmXeDDC3bhnI/wDcp66N9WvoZ9yELe1Bhvhj8ARYnZ3y93FUo+oRlGZvpmZ18hXU3B4JnkSa8cfYHB38433ZXFur0QvTbZ+uB5ZtCCGJIPnBifVT3LzcMNs+8pvVDYigH2yqANCVuLgjK3EsU/dRmoJfNb6nkNAC8e/JY002c5ZiNmFPfa1Pct4BrpxgJcfIZybULJXyZJuJZl4FYZWYOfYgrBy38rssuxHZcu6lbVzQ0xWx4UClbASx6SsKoGKgFkIcGsozSpjGXHF29wwimXF1VJyEKh9We7G53K4OR0NfBB+NJCbFShItUWrAtKt72/YQk6Vpysh4IFYN1/fXaltaluKGwKCuLZSFggXt9ugttfWCJBIiWDQklU5a/dMW1fv8vzjk+KNj4keuLHf5UGwdQM3nf6NDzIz3mSEkl83rvWGXSkrKmwNjg35rz65yjj3bTe3GSdQc00i8F8K+SAEPfijkMZmBWq8NfN2kT2e1cMyBI7HH/P0N7EZn9ZX+78jP1jGXy0FBFbvW4XvPRiCwtik3rzg3FX/fGGopJpuBIHEtMTfbv0muVM1vxQszYX88/su/muElZplCIGdZ3fe9rxtyPEjU175nw2BT8Lvb7prPe763J28dVJufnFfw2IIX8n0ib9OWHZmKV59krmCRA8vza6kXZM2T8T0ejn0Kg0QgJYCsf1p+yS/mkR1GG6Ju7e3d+nS3IwipCKpQVyTQgjq3PKy8nLSc/IysUuFiq1BBDA1A5oKV0TjozE7uqojH8LMTcsB1CrIBiEmi8fcYDU8/b2I7Sg8gfnYsMN82O/evVto4hTfH9dXAHY+GvwZqVLNKioC7m7wHY24j0XlX/zKC6MlQIDvlhQ/QNQWOzECVHWZAuOE7DjFN+Zmv0+dGA1VdJdCAKoLhWYKTCy3aqpd6g6rjeEhUGivQFXRVd1wGQSI5SYRE/xnr0+tugx2akMUjgAZoaSeirpeQeG3ShVPJgJ878PYCKVMdiqZioByEGAdSmi5UrYwVg46qiSugYBeuanPbcQ5CXAP6FWjd5CX/nMnrgGBFVuRnZf906Ufr2Ves5hnhDbirepv+2qL6bd75OCWnpP+7flvHubpP80jKMWigfo1lDQJ1/ypJrTYBzX6h3jbZJccOY1xIhovjRdUkwo85/hssyQfU2+sWfTFltjP0++DOuRjuZm5mQtPxxjBgetQwk1hngrmUvELAHRVs40gaCjLLGU1i9hQjcUt3UfrI8aNr8kkBgibzTqY7IQiFV17eHGDzIrtFUMvyXx03Y8k09VEOQgYB1k49q5X9HwdHg45Fag0hhDwzjOx62l+LmKxasDKEH6y0vFFNUYnsM7EcsOAw0FhByV9rXwnWbztQtS9ZVfU0/O5t/C7Z+tfZ4+dSbh+c+PXP+ESWVcvXMFJr9bE36WUdhHKdCXDG44wTjSozmDjBPbMpdD1aNUNlc4fNyflUcqva36+f5t8SAhZNy5fx8l7L/fF9tsf9oi2p2DG6xrbaJwkARSbG8Rh2cz5rlWylmQZhyTWqFcT9X67+3v8Lp25qGb9WmUrllu/klziqFwt8vDeQy92avNV7Gomv0PkNLfSYG+rff3H3KrF9L2HvYPENX+uw++RvYcDSwS+0uO1YV3J41e1drUKURVnDJ/+bNuWX8WtvnXjlri40lKg3GQ+N9+YCwy7QiS+fPYyJKEvGUmRSpcv07gFWWPRZ1hfSQKHJeKd6SSbglOQ83LzNFrpufv+AX4UXiWDzJSEhAKZqTOiOg7TjMcVN3/+qbF9R1+/dG3tX+u/2fUdfYF+s/M7Jli5SuWQGFWzSmpyasz3cQ4X2BkFuHTm4sT3x10+dwkgL/15Rd82vbIys6ghp80ZMWMUQK5UrXLpcqWjp49UfhvdAwICwrDxJ++oG9MQV8b7ocpvmEIknHNsthHLrYJsldtEQf5v6CFqqenv7du31a66VeBVmSgCAYGDLVRuZfrcikBOFULxCPDDCdzwu6BPaYsmnI46Zgu2tuDpvBsBOwvInrme1a7XtsW9YzypjS5kuVWzbVPEVeZ2Q4CacP2UV1Wz7Qa9WpFNEeDMNl36rqq1TbFWmTsEAWg1N/yu6rdDboBaqXUR4KsxUW479Cat2wCVm4qAJAJiAy0MBUoWUxNVBJSPgNhMq8qt/LumSigXAb5+cz633KIqnYqAUyGgWm6nul2qsEYR4LvdZC81sRtutLiaqSKgXAT4w+9Y6k6iJViDw09VruyqZCoCRhFglhonUGk1zm0ULTXTqRBgNpr2LD0Eezk4VVtUYVUECiHAd0CIz+3Az2Pr8nW5OeqnpGyroPl5+Xk5ebatQzHcBR1IMnHK/n3KuxfuTqo+SRKT2i/Vbty1cZ12dYLLBHto1GCOJEiyEs/uOPvZi59JktZ/tX7jNxrXblfbP9TfZUDmB7nRalwa/EClJChWSUxPTDek2eB/+o/T+BNUhBsQUiGkx5IeddrXsYoMLs/k4p6LhjQbbT/2yzH8CUDQeGlCK4T2/6F/hYYVnBEfQVwEJtsByj0ijOzm0eC1Bs8Nfk4AYtKtpIt/X7yw58Lts7f5WXi3Prj6ILZDLBKX5iz10KoW3YT6zWs5DxTtx7Wv8XwNAWnitcQLf1+A9t+7TPYkYUdedt69S/dmNJqBlOW65SYqUF42tdz8PqWW6jvU3M7OiVizARdckcZvNsafALq0xDR4Mr9M+QVu+kDPgQx6XG4cv/H+1fttP2pbsVFF5QHuGIkAC61YrNlID60U2qxSs2Y9mgmES72fevPEzd9n/45td/p79F+ez+k3XPYfRvyQ/ii9zUdtytcr75gmyauV36FECS36lPIKOpIKrmFks8joLdGx7WNhxQ+sPdC0e9Pvh36/a9EuKtahdYdwMnLnSMnb6UjRHVF3RlIGqhXcaZOCBJQMAHr4i2kTA/2GXQ+PCv/0uU/P/3melt2/Zj9O5t2ZFxThHDtZE82G8TbZcqsTMOtiFue34siOat8P+x6IU832Dfat90o9+pX1Ba0XfNFT/Vi9m1+IH1Cy+FX8zLvPoPiGcRs2TtxINTukfEjVFlXpHhWjS43eu3qvWXfNnsT8biVRbvqIm/ugWyxx2SfKouzCdguvHb6G/Y3M4vMo/hHotV5aWBScvLXwLXSAWg9tDaP+0siXkHJgzYGPyqj7prr5BJFNTGGD7168i+02zQL5YTzZ2j2oVNDvM3/HyfCtw/us6tNxSkec1H25LlK+7vf1/FbzzeJpN2I80kyfC30e2z4STDkxZaj/0Oz0bNgGfo1efl4AtP4r9Ss2rgjnW1KYzbM2I33kjpFTak/BSela3FfrcY7oYaUmlVZ2X5l0O2mAx4Bl+cskORSTxIVJC/u7k03a1w5ay2+yd4A3zDBCgeXqlTPkXZzaegpFui7ouiuuwOvjbQf3QvQLwBkO4YW/LgwLGBabSrr4yjzgj3BxbruZbQpEXFrclf1XZjcv9PkBqPv9K/d3xO4Qg1XuiXI5WTnoU9Isvk7zieE1wrrEtI3B44tbuyxvGXVXxAyLQwq63Uc3HF3WpdBDnpWahUiUIBgFNKAAiACm3E2hZlvjqTEUkipdo/TQTUPjXo7LSssCyIqNq3D7lrA7zfdXbH370UHk44Ju4qObj47/cvzfr/9NOJUARecLcPPkTXoJ0JdkL2FZ+7/d36xn4V6/u9vwbcNpv3OAZsDH5z+OqBZh67Yoln/Dzg35ICPuAZAPrT908PuDABmxPyY5zMH1I9fppU+gz8LkhSwLjk1E1UIY4i5Eb42ObRdLjUhMUoxvkFK+48MmumJWoLu/v39oaCiz3BC3fiyJxFl3GzuL94uB0ideTzy38xycFoQImTlJu582MpzsxVj12aodJ3UUq9eKt1YggIj0TjM7tR/fXkxgKMW6m/LYc6/AooB87+K9M9vPBJUJwvgDG7M8teUUzASAerrv003fbipGjBoRpH+468Pqz1UXE0imWH1THgry0SEH+b3He/fu6WcFkkC3Tr9JvaRY9k8E0CUjS7Z4t8WTbz9JNRsvVrwNH916hE4k5MFgBPwQsWDvf/9+g84NkL5xwsaJVSeKCdQUhgBALlWjFEYeGnVpRDX75vGbABmdHzoc8c/qf1b3WS1GbNjvw8KrhiP90+c/Xfn2SjGBPVNoUJtvpp1v9fumjzcBsun1pu/7dt+C+wsIfDoSFsCv4Hhu4HPdF3dHIgbeBvso6BsGQkGVd73sDeKpj4oYVap6qelnp+Mcg8cEZNGBORFtRrVBMlydUaVGifLtlyA2zZzltp8I1qsJDvekGpOW5i6lLGG/c7OEcwzhcA/bPAwEyCLRA9EDYD1xXJPTuuh1i15ZFJfObXkO/RbrUO02tT9Y9wHaj/4o+jkOBIIfF4Gc3NfM7BwtsVb70x6kDdTqR+NxG9D7ETCHM4MuJk3EqLK1qi4+fBCkig6KZh3ThW0X5mTmCJqPYSN0MZGIsblBnoMcAo5Ah3FJ3BIc4sfRIfJZVilM8uLMxZWbVkZxhHV3LJQIJjL9hr23rJbiXArDQAB5ad5SDEQAh8WvLj75+0kBINAiCjIG5u6cv2N/uKgOM00mym1/IWxRI1zqV6e92mNZDzA/senE8jclJrV1GN8BuVvnb7WFAMWB50DNwAmHJ9DY6/bPtsNjEbe62rPVkLj3C4eNzzP7TdwSKh+132JZnSgFYan/Nv6H4SHIjJlD4t5P/LF4ZFVqVMmJGqU0UceUH1O+fvnJxydDsFtnbolBvvTvJWSVq1tOCZIT5XZqn4QPIuKy6LBjYJImAnr+OMXxTceR/tqM15SAu/PK8OPoH5d2Xhqbwg28ky7m4xm2aBSdx9Lo9Ub2byCz2bRqXJLhd5YqyLa/fEWvEVFw2sVEtx2gx3WMCwgLwFRvuroHXYwSZUsUvZZizgGh1ZFhIzHhm3bQMQcuMCKwTO0y53eTybFe/l6evp4Oh0jvljhcFCsKgFaR3k/uUjponPogla1bY0bditUVT1a52blkQYNuOR30QRCQajZmWcWlOuZTiQIHBJf6iVMu45xQbcPEwAE/DmjQqQHWrWF8ATM2aU+/eOqijVoNIzLj0oywSmHo7WCo+NXpr9Kptjaqziy2QrfErMLKJ172+rJaL9Ya/sfwai1JF149bIHAxCoTMUL5+rzXHeJni1sEG029a+KWuICfLW4hS8FkIMeOmRmRzWWyts3fhoF6hTSH34Ek+/IoRCwbiYFuJd6elq1qs5FIrsc25V4K+vEObxesNd+71i8zc7hkNhUA9huru21aRTFnjsnJxIgoZmIpTLiLm22+wn0Y/uG+b/YVcxW0dfPRj8cyCFvXYog/FJrvZrvUII6hNrP01b1Xx7wkMW/TZEGVQD4C056YRpe6yi9iC0qsoXQ+t6SIQ7voYtoCShfjWUSQuZXFdgeF7xTBhJM4N910ChfKcZiMwIKJO/izWFT+a8tILcU8C0MEFiMM6BwFsqBeotxsTaUT3VFHwedEEBVRVBdAmCxWcMiOU0WEXi2uImASgWIULTGJhUrgSgiQDqULvH1c6ZaobbEWAmR4kvUbitKBsJZAKh8VAasgQJXZ+UKBVmm8ysS1EaD+iPPtW+Lad0VtnRUR0O9bojrfVoRVZWV/BMQKzEVLmMMtprC/lGqNKgIWICCOaOujJVS/1W6lBbCqRZSAAOwyX3txro+WKEE+VQYVAYsREDgduOTWUFrMUWZB6+4LLLPS4kZWzEHmux7UiqsjlMXtEXDl9lLjzX5V5Xblm10M28Z3TtTh92KoAC7X5MefpBKEQwzuzz1991SXw8DeDTpx6zj/U2Di6n869aM4UU0xC4G4vYW+qMYPahscodQGOH5HLLMaqUDin6/+bFyqM2nqsiDjCJnOTfZMFhCxnqVBy63x0kzfOc00b5XCAAKL/1qk9SPBKCOH1ls7a/tMIwRqlnEEZm7/WOtjEGTuywqSLLxCvaZuId8yVQ9zEVi0My7ZP9n0cK+7m0eY+8wtM8zlr9IDgVlbZ2pCDWo2CPTREvHYJPZE9SntM23X1FM3hdvoq+AaQiAjO2PKtskpJVI8PGVFotw1HppSmqnbp9xJdsDXCAy1QuHpD1LvT90xxSPCw13L+7zxY6GZTXEPCAgICQlBOpSbptLvUPKbh02X8zJz87LzQaTwZjtSPOwC4+mBt6RMtRaImp9TAHKOCrLRe0hB9tWKP3DMvkNJy+M7lOTb7ybfnmDkEeCldjCNol7UTDwSHp4qyJbDSDWZOSA44VwWsU9ieSVqSRUBRyDADwKifui6OojjiPug1mkDBAQGGpfqrEAbwKyydAQC4v2KC60RdoRIap0qAlZGgJpw1S2xMqwqO0UhYHD4XVFSqsKoCJhEgMWyQUmNN1FusbNikpFKoCKgNASgydBp5pNAPLVDqbR7pMpTJATooA1VcQzPFBolpqkC9kEewQOfcPwXT4rUaHsV3hm/42DiQQtqi/KLerNqVwsKFsMi31/47lrGNUHDyeaABcpMTTjO3TH27u/vzwYpodwN4proi+ncxtQfWwzhK2KTF56IydRlymWS7zamgQqyXLQY3fzj8/Lc8tjlf0MP8VkkJiYSTecbb6blhE7VbLMB5wpE1x3upfOSUxqfWVM1Ww5QYppR9Ua76/QTp5jDTSlzc3OF0RK+W+JcNnvzut/E7Xdgyoj6I+XUPrbBODlkRaf5Z/veojD5MuYLfvHuLRXhQX1Uf4yhRpERHJhqvrVm55gJaKiYndPHvDPq3PEzv639hdZ7+ewlnIztO5peLv447vbN20ykWSM+trN4Rqp7NuxZI7nIKq0tbZzA6rkzh0/XYzXyY7pL06T+4/Py8uKmkk9hrVnyzfVLnDv7x4at1GTgFuz4eTvS542ZnZ2VjZMKURVBPOG9sTk5Ocs+WUJ5wjIunhG3f7ddPxmXn2lQUYUrcZjlHtdovNWRtYzhjcvXa9Sr1bH7qwsmzAOHzAziyyIRv7AfgycN9fP3o5xxh8Z/NkkhRgUiPV2uhfEm96n9jnEC6+biTT0hZjLF5932fcYvmDRtyGRUEX81XqPRDJ06HFk9BvWCHiPxhy/WvdS5bYduHYd1HTzny/kBwYEVq1S6dSPBy9sLJxT/G1eue3p6Dhg36ItPV6DIwE7vD544dPVnhWy8dZsg5jauqYSi0j4lmfLK32StkM8t5uTQlCP/HBbU/+3u73u06lanSd3xn05EFu6QQwWUqhwT4CXm00tR2j5Nq9WvW8lIyxjVa8Sj+w/F1bZ46Rkkvvlut/c79E1LTVv713oxjSDl0QPCJ3Y9MeFNnnnSJL2tCaj/7UyzAiOrRwGUOwVOiA7/3Nx6PvfWmj/XUc22NV4uxj8kLGT+N5+VKm/QL+r9QvcVm1dDswFyQdtNr1P5Yv7noLsVf8veWBWIxnewuTi3veWwqL6V85Yn3Lj18fJZKI136IT3x9I3DDR72JuDGj7VqO/I9yxiXHwLdR/Ua+Tbw3oO6W0Igq93rJ01YnpWZjZej6CpWb/2lfNXDBHT9FYdnsftqNu0vnEyO+RS9XAPDw/38fHh10eXmY2pp5TIKxxBOW9GO0BmQRVzjs024pYoB2QLmiYugu7m6Dlj7X+/KMh0mRlsNtVsLDPzEO9qLBbasSnOq9mOxc3+tUOzc3NyHXW/qJ/Nj2XLGn4vOkyno44VnYl9ODjvXqnOArJfpn/lhKq2uJtMs+kJNxbPalJytMQWcKg8XQkBfp+SDOKgbXxL7kpNVdtSrBBgmk3dbvjbJM6tfAhW915979K99Efp6Q/JX05WjsnA1HLdcuW3S5XQuggIzLSWuuEw4Yq13xnJGfu+seuIrnURV7nZEwFmrKHPZMiKPyvQnnLIrMs3yDe4bHBSQhLoX5/7ul8JP+8Ab59AH+wiKckhpg2ZI6EexQ0BqtbUJ6Ft5zbCVKzZplLOvTmXnuxfsz+sclhAyQBDml3c7qjaXkMIQNeV640wofHg9Xfvj0vsIPTGvDcMNUZNVxGgZpuZcGEoUGkAQdwBHgOoVNFbopUmniqPchBgDglzQ8jEKTpIqUDPRK/Z7m7Dtw1XDo6qJEpGgPUpC83nZrqvBNGx/orabOwxO3yrXM3W5ZmevKaE1qky2BQBGvPWBxyovitkqgnRbA3xRrRe2iG/DZEPRL6OrMuAdy6/iErpMgjwvQ9uhJLfNmbSHdjgvOw8qtmePp5maTZkxlOBXw8N6UuoR3FDgBpstJqe6KMlCvG5czJzBnkPgnxe/l6Dfxls7u15FP+ItE213OYC5yr0VI3pr9AtcWwbsSp5iC9xQjBGM+BHLkhilkh3L90FfWiFULNKqcQugwBzPcgePcySQ9kd63Cj9oGeZF8rjEFaptkoe+/iPfxGNot0mbulNkQ+AtBh5oAQ5UZJdu1AhzszNXOghmi2f5j/B+s/kN8ePuXZnWcTrycipdKTlSzjoJYqIgK5Wbm021NEPkUvDmUmE6fwH9Qcv3zFLzp3+RzSEtNGhpEtbALDA99d8678gnxK/pSSSo1U5S6E4qaPN22euRmaV6ddnUE/D0IMyjKQjZSa2Wjm9aNkvw164N3bsEtDI/S2zpKIlti6SjH/pNtJVLNDK4ZaRbNRBcy/uKLimZJwMgGTF36Z/As0Gwic2nJqsPfgGQ1nWBcNjEjwNRvMl72+7K/P/7JuLca5UQeEeR84cfBihUcJjz4q8xGEjqgW0XulwZXYxltFbTYiJGwOd0BYgPEixSQ39X7qtLrTxI298d+NmJesM3cyLycPDw9VrOit0RhIxl+XT7qg0jX914irtl0KVWvmY+OEc0uoT2Jnn/vBtQfjK5PtgsrWKdv1Mwv3nuM02919Wd4ysFqev/zQ+kNHNx5NuZvC/pLvJKc+SM3Py0c0hvzl5efl5vH3iyv7RNkpJ6bYDndHcf4w/ENDVZ/ZfgbOcRFjplhBMrEq2Q4JfPgzfyo2Jput4cDKEr8Qbj8wQ5JYMZ2qMWOo97lpElN8K1YpyerOuTuTa5K9vMrXK//GfAvn+jE/e1k+0WxyuLttm7vt2hHh5s2SMrBEvLuNEzhjrslb+d3g77ov7W5x0zZN3/TLFLKBY0B4wHtrhPvGYE4yHKGkW0n2VG5y/x+vLCOWG9d8FOxjvPFapG5fpSaVOs/qbBm+VLM1npol2dxGjJTP+MPj6RRZXDbo1ACTvwMjAtFVpX/iXURcdXHDwxsSW6XxoT6x6YRlyKPUtCemJZwiFqHR641a9m8p5kNd/DK1y4iz7JNC1lBi80j7VMZquXLgyuxms3FZs3XNdmPbWVA7nsaFbReiIMzD4szFYg4LkxdGB5H5sU/3fdrL19g+2ZnJZFtNlzywXsl4u7wCjCFjpOxA7UC4diDo9XkvrB0RUurcFrYndwd2R5hl+2voBjXQiJZosXmkyfeXFUU6u+PsZy9+Bob1X6n//NDnLeNMNVvjpZHUbKwjHhEyApyDywQb12zQpCel49e3hK9lkii5lH+oiZDRe2uFvoSc5rC3Iqb9iEOK8OMXtiOajUPwRpXDvCg0fIcb52QQh6/ZttZyvAepZuNdZplmw2Bw3oiXZklWIW+E4pKZkkk1O6hUUN+v+poEK+NRBmiCSwebpHRGgpKRJY2IXaFBBSO54qzs9GxOswum14s1G8EZqtkarcZRuw9Qs001mYQC2QJhWzvcizouQnX1O9WX9NLEaApSEN+IbR+LRE9fT0nNRsiceiMImff7pp9JhiBAjwe/QaWD5BA7Hc3MyzMNyRzz0LxQ4H8b/hvqPxTcvPy8JKfXH91wdGX3lSCIqBqxJEfC7hiSxIrpfAXGOffZEOapWLEmMatqLash8djGY1mpWeJc4ymQMLZDgWb7eC5KJw+J4ICa0pB5eJVw+SHzuxddfKIVLKgw6u/utjR3qRFPTDx+fnrb6aVdlgLwyk9WHrSRzNkUHN/2//bPpX8i8YVhL3x8QSkft+CGYfn+ilBw612P+nPUjEYzbhy9AaQG/jTQZI+H1Yyu96JXiEIj4jH/7nyxRESzy5LBoDK1ynRb2E1MYCjl7nmi3BUbcXFZQ2ROnf7p/U8l5YePh4jHyd9P7ordhdE0Mc3oPaOrPlMV6bST03FKx6otyKXgwAs5N5sMf043WITeAAAHPklEQVQ4PMGBSBIn+/F3J6kJJztO2UezKSITj0ycWmfqrdO3oN+SPRIhcm5uMPPUbJQoW2LOzTligpsnbk6vNx3pmAz42seviQmMpNApshUamud9GmGozCx0RX6f9Tv0+ObJm/JX4s17dh68uyff5r6UIKnZLJCKCBUmKjuw+cwnoSeIlJBBHDsLNPXUVAzfYBAHTzwGbJlMkmKgE0M1Gx1ESc2+su/K7KdIYLHqs1U7TuooycRIIg1pOdDeGJHNWlnRwdGGIp6I1kU9FVXt2WqVm1b29PbkD1he3ncZM1JW9VpF5z+Ju48YeI97OY4KiYFh8QCCteSXyUegSFBs688OkyPK9LPT4UXAl8D7DsO2hgaBs9Oyl3QmXRP0USQ9OabZUc2jLNBscKb+pWNNjhzELKYZFjiM9nDCo8JbD2uNrrZMbxCQItiKJX/o5KB26ngwMTC1+Ov3vsal1lO7OFtiqMFiga1VEMpNoiUOWaMwN2GudyAZZWBhUUGr8Calmo2JH5KafXbXWWqz63Ws9+r0Vy0Dxf4vLsvktKwU4ktUsxHf6LGsB8YLZWo2rS6kXAhOMJxMrQ88EEzRQcr30d9TzS5Ts4zSNJvZb6LcuHDUXoGxybHUKgA1gZJhIAZzJoEjvGHJKU3/bfzvs9ZkMKjxm41hkCy496gRz4/J3WIt4KycIqe2noIwmIBgmc9w/8p9FIfPhugKbdTKt1fiZt0+cxuXnT/pPPXMVOU0ViyJg79mtihjEbUl8E+Yfj+6+ejzruS7WOiqowMqFvrA2gNLOxO4m/ds/uz7Jj5kKi6OFMwKRI30+ZEkcI1EdFTQENqvMKtF8NbokAItBQuIkCJ2IS0IHbtj9AeXlk2dMEsMs4ip/jAtIsPvuGDXODHevTOrMpnEsSmxWBSMRe/QNox7YRblmoFkHnCdtnWGbRkmZrJ78e7vhnyHdIwEYaRTTGAyBS/ruA5cT8gksVMT0CgQ5p2SF5TUVi7ZGdnYPvfCXxcu77+MiVboIwrayx9CbzO6Df4UC4iJDqX9NZsiBfs9yGsQkGVxpSZdm7y/7n0xjlvnbP1p7E9If2nUS3Xa1BETmExBIIwOBmHmyWszXvv6XdIrctUD+7dgNDcnIyembUyVp6vACbx26FpWWpYcW163Q90hm8zYDklpGMJSF4qWOMRyU1BgIbARD41dNO3R9N1vJVZSbpm9ZcO4DaB/bfprkc0tWd+uHwyKCESPFqzK1S2Xeo90klz1wGgu9hTAy+rSP5ck2wjtL12jNBaLYPQRe8VI0jhRIjPQOCkU53aU5abYYSkNlve1HNBScojxpzE/bZ27FZSvTH3FMs1GyHxJJxJYJMOcd7hhTtxRJ7pzlom6NGcpAmLrhq1D8UZdGtVoXcMyPk5XSlnfxFmcJR0xxZqR3Ut2A9xOszpVbmKJOiL8QjupmHky4+IMp7tPRRQYvau3F71dRCbKL863zsRy8yV2oFtiBDgMku3/dj8IusV0s2xlR9rDtBXdVoBDuXrlJh8ja9vUwyURoArM1LiQcjvWLZGEe1mXZZhLiaweS3vA6ErSGE+ES72yB5mKiZknY/cp5ZvfxmVWc4uCAFVjYYeyKBxtUXZhm4Wn/zgNzj0/71mysrF594ZqZ6PEWNI2YgdZnqMexQcBYrmh6SzUrZyWYyiHavb7379vcsWUpNgP4x/SUeIaz9dQNVsSItdOJHNL6KE0n6REuRJUMLq+w9zbcPfC3a/6fYVSDTo3GLmT7NWmHi6PAHSYP1FKcftz828AmUhZMHGPDrvIvzfYh2Tt4LWgf+b9Z7AqQn5BldKpEeBHRKDoestNW6Us/8Tdja4zxRiE/N1FMAi3fuR6NAcTqrD3gFPfLVV4cxHgOyDc/twsSWnOCdpG90nDCV1pZry1F/Zc2DCejGK2Hd1WcjDIeHE116kR4GsvzLR+gbBiW4WZaHS3NAye08mAhkTFOlbs1YtczF/rMpfsxagexQoBvt/BuSVM35Xlk/BuCySk/gkm/dD9IcT3DHOXt83fhvQ3F7yp5MlrYsnVFKsgwLSX6XOhlTgK9En4zcYcCVxivdPn3chsb/5x5H9H/vj0D6QgIv7iiBetApbKxLkQoNoLFcdBz4ly40yxNpuPL762GptGti7BBOXVfVazrL1f7KX7nGMuoWVrF5zrLqrSSiLA12F6zim3wm02a4y3nzfdHxCLi1e/Q/QbE6oOrjuIE2wUgbmyks1WE4sDAmIdLrRXoFNAgJ1dsXgHomIJCXZ9wGJKnGPSSN2X6zqF/KqQNkJAvBTYPTQ0NCgoKDc3l7ks8fHxNqpeZasiYDsEypcvD+bMft+/f98D+3PTT5nZrlaVs4qA/RGA200+aMa352LHxf5iqTWqCFiGANVe9kssN1+hVeW2DFa1lBIQoEESNnfKQ6sttF7BIbtPKQEXVQYXQIBvuYlbQkLedt8L0wVwVJugNATETsf/Ad/+TyfHosJRAAAAAElFTkSuQmCC;" parent="1" vertex="1">
                    <mxGeometry x="-810" y="20" width="244" height="412" as="geometry"/>
                </mxCell>
                <mxCell id="38" value="" style="rounded=0;whiteSpace=wrap;html=1;fillColor=#2E4F4F;strokeColor=#0e8088;" parent="1" vertex="1">
                    <mxGeometry x="-558" y="27" width="233" height="401" as="geometry"/>
                </mxCell>
                <mxCell id="39" value="" style="rounded=0;whiteSpace=wrap;html=1;fillColor=#2C3333;strokeColor=none;" parent="1" vertex="1">
                    <mxGeometry x="-558" y="27" width="233" height="45" as="geometry"/>
                </mxCell>
                <mxCell id="40" value="exercise tracker" style="text;html=1;align=center;verticalAlign=middle;whiteSpace=wrap;rounded=0;fontColor=#FFFFFF;fontSize=16;fontStyle=1" parent="1" vertex="1">
                    <mxGeometry x="-532" y="39" width="160" height="30" as="geometry"/>
                </mxCell>
                <mxCell id="41" value="" style="rounded=1;whiteSpace=wrap;html=1;fontSize=16;fontColor=#080808;fillColor=#5B9A8B;strokeColor=none;" parent="1" vertex="1">
                    <mxGeometry x="-552" y="112.54" width="108" height="75" as="geometry"/>
                </mxCell>
                <mxCell id="43" value="" style="shape=image;verticalLabelPosition=bottom;labelBackgroundColor=default;verticalAlign=top;aspect=fixed;imageAspect=0;image=data:image/png,iVBORw0KGgoAAAANSUhEUgAAATgAAAE7CAYAAABJ653EAAAYiklEQVR4nO3deXxU9b3G8WeykYCB4BIgoCwCAYUIVDZFBReuCihQ3EBBARUkAby2Lxdat9t6bWttra0W91YLtUUCJICyKG6ooCiIbLLvoEFAIGSd+wfQay2YnN+Zycx85/P+O785X8LkmZlzfs+ZwMTgxKAAwKCESA8AAOFCwAEwi4ADYBYBB8AsAg6AWQQcALMIOABmEXAAzCLgAJhFwAEwi4ADYBYBB8AsAg6AWQQcALMIOABmEXAAzCLgAJhFwAEwi4ADYBYBB8AsAg6AWQQcALMIOABmEXAAzCLgAJhFwAEwi4ADYBYBB8AsAg6AWQQcALMIOABmJUV6gO/a/sV2bV26VSUHSiI9StxIq5emOqfU0ZnnnamU2imRHidkSg+Vat3CddqzaY8qKyojPU5cSExOVGrdVDVs01BZZ2dFehxJURJwGxdv1KQ7JmnTx5siPUrcSquXpt4/7a3L77lcCYmx+8a+sqJSrz/6uub8Zo6K9xVHepy41fTcphr81GA169wsonMEJgYnBiM5wOq3VuvJPk+qrLgskmPgqM43dNaIv41QIBCI9CieBYNBPT/keS2evDjSo0BSclqy8mbmKbtXdsRmiOhLdcmBEj13w3OEWxRZPHmxFr6wMNJjOFn4wkLCLYqUFZfpuRuei+gpp4gG3KJJi7R/1/5IjoDjmPv43EiP4CRW57Zs/679WjRpUcSOH9GAW/ve2kgeHiewY8UOHdxzMNJjeHJwz0HtWLEj0mPgOCL5dx7RgDtQdCCSh8cPOFgUYwEXY/PGk0j+nUf2cllEL2/ghwSDsfWfE2vzxpUI/tfE7n4AAKgCAQfALAIOgFlR0WSojsSkRCWlxsy4USdYGVTpodJIjxE1UmqnKJAQe5uZo0X54XJVlFdEeowqxUxiZPfKVu+f9o70GDFr99rdmnTHpEiPETUGPTZImS0zIz1GzJrzmzlaMXdFpMeoEh9RAZhFwAEwi4ADYBYBB8AsAg6AWQQcALMIOABmEXAAzCLgAJhFwAEwi4ADYBYBB8AsAg6AWQQcALMIOABmEXAAzCLgAJhFwAEwi4ADYBYBB8AsAg6AWQQcALMIOABmEXAAzCLgAJhFwAEwi4ADYBYBB8AsAg6AWQQcALMIOABmEXAAzCLgAJhFwAEwi4ADYBYBB8AsAg6AWQQcALMIOABmEXAAzCLgAJhFwAEwi4ADYBYBB8AsAg6AWQQcALMIOABmEXAAzCLgAJhFwAEwi4ADYBYBB8AsAg6AWQQcALMIOABmEXAAzCLgAJhFwAEwi4ADYBYBB8AsAg6AWQQcALMIOABmEXAAzCLgAJhFwAEwi4ADYBYBB8AsAg6AWQQcALMIOABmEXAAzCLgAJhFwAEwi4ADYBYBB8AsAg6AWQQcALMIOABmEXAAzCLgAJhFwAEwi4ADYBYBB8AsAg6AWQQcALMIOABmEXAAzCLgAJhFwAEwi4ADYBYBB8AsAg6AWQQcALMIOABmEXAAzCLgAJhFwAEwi4ADYBYBB8AsAg6AWQQcALMIOABmEXAAzCLgAJhFwAEwi4ADYBYBB8AsAg6AWQQcALMIOABmEXAAzCLgAJhFwAEwi4ADYBYBB8AsAg6AWQQcALMIOABmEXAAzCLgAJhFwAEwi4ADYBYBB8AsAg6AWQQcALMIOABmEXAAzCLgAJhFwAEwi4ADYBYBB8AsAg6AWQQcALMIOABmEXAAzCLgAJhFwAEwi4ADYBYBB8AsAg6AWQQcALMIOABmEXAAzCLgAJhFwAEwi4ADYBYBB8AsAg6AWQQcALMIOABmEXAAzCLgAJhFwAEwi4ADYBYBB8AsAg6AWUmheqB9O/bpvefe05q316h4b3G11uxeuztUh0eI/Xngn5WcmlzlzwUSA2rYpqE6X99Z7a5oF7Ljr5y3UosmLdKOFTtUWV5Z5c+XHS4L2bERWusWrtMj5z5SrZ9Nq5emlj1aqsetPVS/SX3fxw5JwC15bYn+MvwvOrz/cCgeDlFg+xfbq/2zGxdt1Id//VA5/XI0ctJI1TqplvNxy4rL9MLQF7RkyhLnx0B0Kd5XrE2fbKr2z696c5Xm/nauhkwcoq5Duvo6tu+PqGsWrNGz1z1LuEHLCpbpmeueUTAYdH6MF24i3CCVHCzRi0Nf1PLZy309jq+ACwaDmpw3WZUVVX+EQHxYPmu5lhUsc1q7ct5KLXmNcMMRwcqgXh37qq988RVw2z7fpu3Lq/9RBvFh8eTFNboOdu1eu1sbF290Xu8r4Hau2ulnOYzaudrteeG6DrbtWr3Lea2vgEuuVfVVtlBJqZNSY8eyqFYd9xP/XiWluF27cl3noiZ/HxbV5N+jn+eFr4Brem5TBQIBPw9RbQ2zG9bIcayq27Cu0uql1cixmnVpVqPrvEqrl6a6DevWyLGsqsm/x6admzqv9RVwGY0zlHNVjp+HqJY6J9dRyx4tw34cywKBgNr3aR/24yQkJujC2y50WttjZA8lJieGeKL/1L5P+xp7YbaqZY+WqnNynbAfp+1lbZXZMtN5ve9tIoP/NDisr4YJSQm67K7LlFSr5j6+WNVlcBc1yG4Q1mP0e7CfstplOa3NbJmpgY8ODPFE/65BdgN1GdwlrMeIB0m1knTZXZcpISl8Zag6p9TRTc/c5OsxEvs92O9BPw+QWjdVbS9tq8V/X6zyknJfw3xf3QZ11ednfdT0R+5vUfH/EhIT1Pqi1vp297cq2lQU8se/4NYLNPDXA329O2rRvYWK9xVrw4cbQjiZpICU3StbV064UilpnM8NhYzGGco6K0vbPt+mkoMlIX3sWifV0rg3xjm/WB4TmBic6L4r8zu+fOdLPXH5EyordqvMNMlpooZtj3yuT0lLUWarTJ3R6QwlJFKXDYe92/Zq85LN2r97vySpoqxCy2YsU0V5hdPjdRrUSbf+/daQ/H8Fg0G9NOwlffjyh07rE5ISlNM351/v+utm1tUZnc5QRuMM37PhP1VWVGrzks3a/eVulRaXSpJ2rdmlLZ9ucXq8pJQk5Rbmqu1lbX3PFrKAk6Rlhcv09ICnq9Ud/L6UtBQNemyQMlu5f96Gm2BlULP/d7bWvL3GaX2bi9sob1ZeSE8jVFZU6plrn9GnUz91Wt+8a3P1e7AfL5AR8PWGrzXlJ1N0+Fvv7aZAQkAjJ4/UudeeG5JZQvq/n9M3Rze/dLMCCd4/opQWlyr/vnzt2bInlCOhKkFp/h/mO4dbs87NdMf0O0J+jjQhMUEjXhmhVhe2clq/4aMNmvPYHF+1MXi3b8c+5d+b7xZugYCGPD0kZOEmheF2SV2HdNX1f7jeaW3xvmJNvXuq9u/aH+KpcCLvv/i+ls9y6/s1aN1AuYW5vsr1PyQ5LVm5Bbk6o9MZTutXzV+lBU8tCO1QOKFDew9p2oRpOrjnoNP6q395tS647YKQzuT7IsPxNOvSTJUVlfrynS89ry09VKoNizaodc/W1bpdD9x9Nu0zLXxxodPa+k3q664FdykjK7zntZJqJanjwI5aOmOpDhZ5/8PZtXqXEhIT1Lh94zBMh2NKDpYo/558FW10u3jVK7eXBjwyIMRThSngpCPnZYr3FmvDR96vhh3+9rC2Ltuq7F7ZNbIvKh6tnLdS85+Y77T2pFNP0l1v3aXTzjwtxFMdX606tdTh6g76ZMonTnet2fLZFqWmp6phGzaLh0N5SbmmT5juXN3semNX3TjxxrDsTQzrGdhrHr9G517n9nl61+pdKnigQBVlblf1cGLrP1ivub+dKzmcnkqtm6qxr4+t8bCof3p9jZ091nlz6dtPv+18nhEnVlleqcL/KdS25duc1uf0y9HNL7qdt6+OsAZcICGg4S8Pd77T65bPtmjWL2dxO6YQ2rp0q/PvNCklSaOmjIrYvsSss7OUNyvP6ZxfMBjU67963dedKfA9QWne7+dp46KNTstb92yt2/5xW1g3C4f9GnpicqJun3K7c9Vq3cJ1mvf4PKd3G/h3X63/SgUPFai81PuG7ITEBI2YNCIke5P8aN61ue6Y5nbVtrK8UoUPF3q6WzFO7J2J72jFnBVOa5vkNNHo/NFhP89eI5uEUmqnKLcwV03OaeK0fsXcFVr4ktvJcByxd/te5d+br5ID3necBwIB3TjxRnX6cacwTOZdm0vaaOTkkU573MpLyjX959P11fqvwjBZ/Pjw5Q+1ZKrbzUkzW2Zq3BvjVDujdoin+k81tgsyrV6a8mbl6dTmpzqtXzR5kT755ychnio+HPj6gKbePVWHvjnktH7grwfq/BHnh3gqfzoO6Kgb/niD09qSAyWaNmEa25EcLS1Y6twyyWicofFzx9fY3VxqdJt3Rpa/f9y7z72rL17/IsRT2XZ4/2FNvdd9b+EV912h3j/pHeKpQuPCUReq30P9nNYeLDqoqXdPdd6zFa9WvblKC/64wGltnVPqaPyc8Tql2SmhHeoH1HiP5bQzTzvy9rS+w9vToyc11767NvSDGVReUq7p90/Xnk1u7ZDuw7rr6l9cHeKpQqvv/X116X9f6rR27/a9yr/P7WN7PNq8ZLPmPjbXqR2SUjtFY6aPUaOzGoVhshOLSFGvSU4T5c3MU0pt73d1ONab3Lxkcxgms6OivEIFDxVox4odTus79O+goc8PjYn7pg16bJDOu+U8p7Vfr//a+cJLPNmxcocKHixwuhlDUkqSRr02Smeef2YYJvthEWsit+je4sjdJxwuEVeUV6jw4ULt/pIvjj6eYGVQrz/6ujZ9XP3vovyuNhe3CdmdQWpCIBDQTc/epI4DOzqt37p0q2b9gu1IJ/L1hq81/WfTnb5cO5AQ0C0v36KzLz87DJNVLaLPYD+b/EoPUc4/rqPleZeanHSkZheO8ny4+S3nr/9wPeX844i28rxXEX+J7npjV133xHVOa4v3FSv/nnx9u/vbEE8Vu9574T1/5fmC8JXnw+1YOf/0jqc7raec/++isTzvVdi6qF4079JcFWUVThcPSg+VavMnm5XdMzvm3nWE2mfTPnPeL1hT5flwC0U5PzE5UY3bxXc5P1rL815F/B3cMf1/2V8Xj73YaW3RpiJNmzDN+W7CFqyct1ILnl7gtDb9tHSNnzteJ59xcmiHipD009I1dtZY1WtUz2n9+y++r89nfR7iqWJHeUm5Zvx8hnavdTvH7edTWahFTcBJ0rW/u9b58/rO1Ts144EZcVnO91uez5udZ+5OG6e2OFXj54x3K+cHpTefeDMuy/nRXp73KqoCzu8Vl2Pl/GBl/JwojuXyfLhltfNXzn/jV284X4mOSTFQnvcqeiY5yu+emXUL1+nNJ98M8VTRyUJ5Ptyad22u0fmjnc7P+t1LGGtioTzvVdQFnOR/1/PnMz83X863VJ4Pt7aXtnX+2OS3DRIrYqU871VUBpzkv7e2aNIifTLFZjnfYnk+3Drf0Nm5nO+3zxvtYqk871XUBpz0nV9eA8dy/rPv6os3bJXzLZfnw+2i0Rep7wN9ndb6fVGJVrFWnvcqqgNOOvr2d47j29+gNO9387T2PRvl/Hgoz4dbvwf76dI7fZTzHU8LRKNYLM97FfUBJ/k7gRmsPHKr6m2fu132jhbxVJ4Pt0G/HaTzbnYr5/u5sBNNYrU871VMBJx05BL0ra+6lfOP3cXVdeNipMVbeT7cAoGAbnzmRrXv095pvZ+tOdEglsvzXsXUM/6cq845cjXM4V1I6aFS5d+br2+2fhOGycIoTsvz4ZaYnKjb/3m7Wl3gWM73sbk6kmK9PO9VTAWc5L+cP/Xuqfr2q9gp58dzeT7cktOSNaZgjHM53089LhIslOe9ioqyvVfNuzZXeUm508WDf5Xze0V/OZ/yfPglpyar4wD3cv7OVTuVlJKkrHZZYZgudKyU572KuXdwx/R/pL8uuNXt1aRoU5Gm3Rfd5XzK8zUnPTNdY2e7l/P9vMuuCZbK817FbMAFAgENfnqwfnTNj5zW71y9UzMejM5yPuX5mue3nO/nPGk4WSvPexWzAScd6VMOf2W4zv4vx3L+p1s0+5HZUVXOpzwfOVntspQ7M1e16jiU831e6Q4Lg+V5r2J38qOSUpI0auoonXme256cte+v1Vt/fCvEU7mhPB95Lbq1OFLOT4n9cr7F8rxXMR9w0tFd1TPcd1UvK1ymD/76QYin8obyfPRoe1lbDXtxmHM5f8YDM7Rnc2TL+VbL816ZCDjJfy/uo1c+0pLX3J4QflGejz5dBnfR9U9e77S2eF+xpt4TuXK+5fK8V2YCTvJfzn/nmXdqvJxPeT569byjp79y/j01X863Xp73ylTAST7fXtdwOZ/yfPTr92A/XTL+Eqe1e7fVbDk/HsrzXpkLOElqck4TjZo6KqrL+ZTnY8c1j1+j7sO6O639av1XKnyoMOzl/Hgpz3tlMuAkKbtXdtSW8ynPx5ZAIKCbnr1J7a5s57R+y9ItYS3nx1N53ivTfyHnXHWOhr0wLLrK+ZTnY1JicqJGTRmllj1aOq1f/8F6zX089OX8eCvPe2U64CSp203ddO3vr3VaW7yv2Fc5+Xgoz8eu5LRk5Rbm6vQOjuX8uSv13gvvhWyeeCzPexWTZXuvmndtrrLiMq17f53ntSUHSrTp403K7um/nO+rPH865flokJyarI4D3cv527/YruTUZGWd7a+cH6/lea/Mv4M7ZsCjA9RjZA+ntUUbizRtgr9yvu/y/BzK89EiPTNdebPynMv57z73rpbPdi/nx3N53qu4CbhAIKAhfx7iXs5ftVMFDxU4lfMpz9tz2pmnHdmOVN9tO9L8J9zOw8Z7ed6ruAk4yX85f/OSzZrz2BxP+4z8lOeTU5M1ZsYYyvNRqnH7xsqbleevnP+JhyvplOc9i59/6VFJKUm67Z+3qem5bqGx+q3V1S7n+y3PD39luFpf1NrzWtScFt1aaOTfRyoxOdHz2oryCs18eKZ2rdlVrZ+nPO9d3AWcJKWmp2rs7LFq1NaxnF+wrMquH+X5+JHTN8e5nF9aXKppE6ZVWc6nPO8mLgNOkk469SSNmzNOpzR169390BOO8nz86Tqka9jK+ZTn3cVtwElHvrfAVzn/OB8ZivcV+yrPXznhSsrzMarnHT3V5+d9nNaeqJxPed6fuA44ScpslakxBWOUmp7qffHRk74bPtog6Tv3AnMsz194+4WU52PcVQ9fpUvGuZfzp98/XaXFpZIoz4dCXGz0rUpG4wy16NZCH7/6sSrLvV3tDFYGtW7hOjVq20gLnlqgrUu3Os3QoX8H3fyX+Ll8b9lZvc/SrjW7tH35ds9rDxYd1M6VO1W3YV3NuH+G0wWqpJQkjc4freyLsz2vtSYwMTgxer6QIMKWvLZEz173rFspOiDnnmHby9oqtzDX6TbZiE7lpeV66qqn3O8v6Ph8SkhM0MjJI533e1oT9x9Rv6vTjzs5l/Ndw61Zl2YaPdXtOwAQvY59V4hrOd/l+RQIBDT4KfdvmrOIgPuebkO7qf8j/WvkWI3OaqSxs8ZSnjcqpXaKr3K+V/FQnveKgDuOy++5XL1/Gt4rmfVPr6+xs8eqzikO38OJmJFWL025M3N1avNTw3qcXrm9dMW9V4T1GLGIgDuBgb8aqPNuOS8sj52ema47591JeT5OZGRlaNwb45y3I1Wl+7Duuu4P8VGe94qAO4Fjd3HtNCi0bYLUuqnKm5WnBq0bhPRxEd0yW2Vq/NzxbuX8H5DTL0dDn+PW9SdCwP2AhMQEjfjbCJ3V+6yQPB7l+fjWuH1j5c10K+cfTzyW573iN1OFpJQk3T7ldt+hRHkektSiewuNnDzSdyjFa3neKwKuGlLT/X2sDAQCGvr8UMrzkHTkY+Ww5x23I+k7H3fjsDzvFQFXTemZ6bpz/p1O5fyBvx7o/LVzsKnb0G5O5fyMxhkaP2e80jPTwzCVPQScB8fK+V6eXJTncSI9x/TUlROurPbPU573joDzKLNVpnILq/fNVpTnUZWrf3G1Lh57cZU/R3neDQHnoFnnZsotyFVq3RPfgeT84efrhj/dUINTIVZd8/g1On/4ie//l1o3VXkz80x+83y4Ubb3oWhTkQofKtRn+Z/p0N5DSkhMULPOzXTJnZeY/jJdhMfH//hY8383XxsXb1RlRaVqZ9RWhwEd1PeBvs43Zo13BFyIHPrmkJLTkrlsD9/KDpeprLgs5JuC4xG3sAgRnowIleRUXihDhXNwAMwi4ACYRcABMIuAA2AWAQfALAIOgFkEHACzCDgAZhFwAMwi4ACYRcABMIuAA2AWAQfALAIOgFkEHACzCDgAZhFwAMwi4ACYRcABMIuAA2AWAQfALAIOgFkEHACzCDgAZhFwAMwi4ACYRcABMIuAA2AWAQfALAIOgFkEHACzCDgAZhFwAMz6P/G7V91HkHO1AAAAAElFTkSuQmCC;" parent="1" vertex="1">
                    <mxGeometry x="-526" y="123" width="56" height="56.54" as="geometry"/>
                </mxCell>
                <mxCell id="44" value="pullDown" style="text;html=1;strokeColor=none;fillColor=none;align=center;verticalAlign=middle;whiteSpace=wrap;rounded=0;fontSize=8;fontColor=#080808;" parent="1" vertex="1">
                    <mxGeometry x="-529" y="92.54" width="60" height="30" as="geometry"/>
                </mxCell>
                <mxCell id="45" value="tap icon to start" style="text;html=1;strokeColor=none;fillColor=none;align=left;verticalAlign=middle;whiteSpace=wrap;rounded=0;fontSize=8;fontColor=#FFFFFF;spacing=0;" parent="1" vertex="1">
                    <mxGeometry x="-555" y="68" width="102" height="19" as="geometry"/>
                </mxCell>
                <mxCell id="47" value="" style="rounded=1;whiteSpace=wrap;html=1;fontSize=16;fontColor=#080808;fillColor=#5B9A8B;strokeColor=none;" vertex="1" parent="1">
                    <mxGeometry x="-438" y="112.54" width="108" height="75" as="geometry"/>
                </mxCell>
                <mxCell id="48" value="" style="shape=image;verticalLabelPosition=bottom;labelBackgroundColor=default;verticalAlign=top;aspect=fixed;imageAspect=0;image=data:image/png,iVBORw0KGgoAAAANSUhEUgAAATgAAAE7CAYAAABJ653EAAAYiklEQVR4nO3deXxU9b3G8WeykYCB4BIgoCwCAYUIVDZFBReuCihQ3EBBARUkAby2Lxdat9t6bWttra0W91YLtUUCJICyKG6ooCiIbLLvoEFAIGSd+wfQay2YnN+Zycx85/P+O785X8LkmZlzfs+ZwMTgxKAAwKCESA8AAOFCwAEwi4ADYBYBB8AsAg6AWQQcALMIOABmEXAAzCLgAJhFwAEwi4ADYBYBB8AsAg6AWQQcALMIOABmEXAAzCLgAJhFwAEwi4ADYBYBB8AsAg6AWQQcALMIOABmEXAAzCLgAJhFwAEwi4ADYBYBB8AsAg6AWQQcALMIOABmJUV6gO/a/sV2bV26VSUHSiI9StxIq5emOqfU0ZnnnamU2imRHidkSg+Vat3CddqzaY8qKyojPU5cSExOVGrdVDVs01BZZ2dFehxJURJwGxdv1KQ7JmnTx5siPUrcSquXpt4/7a3L77lcCYmx+8a+sqJSrz/6uub8Zo6K9xVHepy41fTcphr81GA169wsonMEJgYnBiM5wOq3VuvJPk+qrLgskmPgqM43dNaIv41QIBCI9CieBYNBPT/keS2evDjSo0BSclqy8mbmKbtXdsRmiOhLdcmBEj13w3OEWxRZPHmxFr6wMNJjOFn4wkLCLYqUFZfpuRuei+gpp4gG3KJJi7R/1/5IjoDjmPv43EiP4CRW57Zs/679WjRpUcSOH9GAW/ve2kgeHiewY8UOHdxzMNJjeHJwz0HtWLEj0mPgOCL5dx7RgDtQdCCSh8cPOFgUYwEXY/PGk0j+nUf2cllEL2/ghwSDsfWfE2vzxpUI/tfE7n4AAKgCAQfALAIOgFlR0WSojsSkRCWlxsy4USdYGVTpodJIjxE1UmqnKJAQe5uZo0X54XJVlFdEeowqxUxiZPfKVu+f9o70GDFr99rdmnTHpEiPETUGPTZImS0zIz1GzJrzmzlaMXdFpMeoEh9RAZhFwAEwi4ADYBYBB8AsAg6AWQQcALMIOABmEXAAzCLgAJhFwAEwi4ADYBYBB8AsAg6AWQQcALMIOABmEXAAzCLgAJhFwAEwi4ADYBYBB8AsAg6AWQQcALMIOABmEXAAzCLgAJhFwAEwi4ADYBYBB8AsAg6AWQQcALMIOABmEXAAzCLgAJhFwAEwi4ADYBYBB8AsAg6AWQQcALMIOABmEXAAzCLgAJhFwAEwi4ADYBYBB8AsAg6AWQQcALMIOABmEXAAzCLgAJhFwAEwi4ADYBYBB8AsAg6AWQQcALMIOABmEXAAzCLgAJhFwAEwi4ADYBYBB8AsAg6AWQQcALMIOABmEXAAzCLgAJhFwAEwi4ADYBYBB8AsAg6AWQQcALMIOABmEXAAzCLgAJhFwAEwi4ADYBYBB8AsAg6AWQQcALMIOABmEXAAzCLgAJhFwAEwi4ADYBYBB8AsAg6AWQQcALMIOABmEXAAzCLgAJhFwAEwi4ADYBYBB8AsAg6AWQQcALMIOABmEXAAzCLgAJhFwAEwi4ADYBYBB8AsAg6AWQQcALMIOABmEXAAzCLgAJhFwAEwi4ADYBYBB8AsAg6AWQQcALMIOABmEXAAzCLgAJhFwAEwi4ADYBYBB8AsAg6AWQQcALMIOABmEXAAzCLgAJhFwAEwi4ADYBYBB8AsAg6AWQQcALMIOABmEXAAzCLgAJhFwAEwi4ADYBYBB8AsAg6AWQQcALMIOABmEXAAzCLgAJhFwAEwi4ADYBYBB8AsAg6AWQQcALMIOABmEXAAzCLgAJhFwAEwi4ADYBYBB8AsAg6AWQQcALMIOABmEXAAzCLgAJhFwAEwi4ADYBYBB8AsAg6AWUmheqB9O/bpvefe05q316h4b3G11uxeuztUh0eI/Xngn5WcmlzlzwUSA2rYpqE6X99Z7a5oF7Ljr5y3UosmLdKOFTtUWV5Z5c+XHS4L2bERWusWrtMj5z5SrZ9Nq5emlj1aqsetPVS/SX3fxw5JwC15bYn+MvwvOrz/cCgeDlFg+xfbq/2zGxdt1Id//VA5/XI0ctJI1TqplvNxy4rL9MLQF7RkyhLnx0B0Kd5XrE2fbKr2z696c5Xm/nauhkwcoq5Duvo6tu+PqGsWrNGz1z1LuEHLCpbpmeueUTAYdH6MF24i3CCVHCzRi0Nf1PLZy309jq+ACwaDmpw3WZUVVX+EQHxYPmu5lhUsc1q7ct5KLXmNcMMRwcqgXh37qq988RVw2z7fpu3Lq/9RBvFh8eTFNboOdu1eu1sbF290Xu8r4Hau2ulnOYzaudrteeG6DrbtWr3Lea2vgEuuVfVVtlBJqZNSY8eyqFYd9xP/XiWluF27cl3noiZ/HxbV5N+jn+eFr4Brem5TBQIBPw9RbQ2zG9bIcayq27Cu0uql1cixmnVpVqPrvEqrl6a6DevWyLGsqsm/x6admzqv9RVwGY0zlHNVjp+HqJY6J9dRyx4tw34cywKBgNr3aR/24yQkJujC2y50WttjZA8lJieGeKL/1L5P+xp7YbaqZY+WqnNynbAfp+1lbZXZMtN5ve9tIoP/NDisr4YJSQm67K7LlFSr5j6+WNVlcBc1yG4Q1mP0e7CfstplOa3NbJmpgY8ODPFE/65BdgN1GdwlrMeIB0m1knTZXZcpISl8Zag6p9TRTc/c5OsxEvs92O9BPw+QWjdVbS9tq8V/X6zyknJfw3xf3QZ11ednfdT0R+5vUfH/EhIT1Pqi1vp297cq2lQU8se/4NYLNPDXA329O2rRvYWK9xVrw4cbQjiZpICU3StbV064UilpnM8NhYzGGco6K0vbPt+mkoMlIX3sWifV0rg3xjm/WB4TmBic6L4r8zu+fOdLPXH5EyordqvMNMlpooZtj3yuT0lLUWarTJ3R6QwlJFKXDYe92/Zq85LN2r97vySpoqxCy2YsU0V5hdPjdRrUSbf+/daQ/H8Fg0G9NOwlffjyh07rE5ISlNM351/v+utm1tUZnc5QRuMM37PhP1VWVGrzks3a/eVulRaXSpJ2rdmlLZ9ucXq8pJQk5Rbmqu1lbX3PFrKAk6Rlhcv09ICnq9Ud/L6UtBQNemyQMlu5f96Gm2BlULP/d7bWvL3GaX2bi9sob1ZeSE8jVFZU6plrn9GnUz91Wt+8a3P1e7AfL5AR8PWGrzXlJ1N0+Fvv7aZAQkAjJ4/UudeeG5JZQvq/n9M3Rze/dLMCCd4/opQWlyr/vnzt2bInlCOhKkFp/h/mO4dbs87NdMf0O0J+jjQhMUEjXhmhVhe2clq/4aMNmvPYHF+1MXi3b8c+5d+b7xZugYCGPD0kZOEmheF2SV2HdNX1f7jeaW3xvmJNvXuq9u/aH+KpcCLvv/i+ls9y6/s1aN1AuYW5vsr1PyQ5LVm5Bbk6o9MZTutXzV+lBU8tCO1QOKFDew9p2oRpOrjnoNP6q395tS647YKQzuT7IsPxNOvSTJUVlfrynS89ry09VKoNizaodc/W1bpdD9x9Nu0zLXxxodPa+k3q664FdykjK7zntZJqJanjwI5aOmOpDhZ5/8PZtXqXEhIT1Lh94zBMh2NKDpYo/558FW10u3jVK7eXBjwyIMRThSngpCPnZYr3FmvDR96vhh3+9rC2Ltuq7F7ZNbIvKh6tnLdS85+Y77T2pFNP0l1v3aXTzjwtxFMdX606tdTh6g76ZMonTnet2fLZFqWmp6phGzaLh0N5SbmmT5juXN3semNX3TjxxrDsTQzrGdhrHr9G517n9nl61+pdKnigQBVlblf1cGLrP1ivub+dKzmcnkqtm6qxr4+t8bCof3p9jZ091nlz6dtPv+18nhEnVlleqcL/KdS25duc1uf0y9HNL7qdt6+OsAZcICGg4S8Pd77T65bPtmjWL2dxO6YQ2rp0q/PvNCklSaOmjIrYvsSss7OUNyvP6ZxfMBjU67963dedKfA9QWne7+dp46KNTstb92yt2/5xW1g3C4f9GnpicqJun3K7c9Vq3cJ1mvf4PKd3G/h3X63/SgUPFai81PuG7ITEBI2YNCIke5P8aN61ue6Y5nbVtrK8UoUPF3q6WzFO7J2J72jFnBVOa5vkNNHo/NFhP89eI5uEUmqnKLcwV03OaeK0fsXcFVr4ktvJcByxd/te5d+br5ID3necBwIB3TjxRnX6cacwTOZdm0vaaOTkkU573MpLyjX959P11fqvwjBZ/Pjw5Q+1ZKrbzUkzW2Zq3BvjVDujdoin+k81tgsyrV6a8mbl6dTmpzqtXzR5kT755ychnio+HPj6gKbePVWHvjnktH7grwfq/BHnh3gqfzoO6Kgb/niD09qSAyWaNmEa25EcLS1Y6twyyWicofFzx9fY3VxqdJt3Rpa/f9y7z72rL17/IsRT2XZ4/2FNvdd9b+EV912h3j/pHeKpQuPCUReq30P9nNYeLDqoqXdPdd6zFa9WvblKC/64wGltnVPqaPyc8Tql2SmhHeoH1HiP5bQzTzvy9rS+w9vToyc11767NvSDGVReUq7p90/Xnk1u7ZDuw7rr6l9cHeKpQqvv/X116X9f6rR27/a9yr/P7WN7PNq8ZLPmPjbXqR2SUjtFY6aPUaOzGoVhshOLSFGvSU4T5c3MU0pt73d1ONab3Lxkcxgms6OivEIFDxVox4odTus79O+goc8PjYn7pg16bJDOu+U8p7Vfr//a+cJLPNmxcocKHixwuhlDUkqSRr02Smeef2YYJvthEWsit+je4sjdJxwuEVeUV6jw4ULt/pIvjj6eYGVQrz/6ujZ9XP3vovyuNhe3CdmdQWpCIBDQTc/epI4DOzqt37p0q2b9gu1IJ/L1hq81/WfTnb5cO5AQ0C0v36KzLz87DJNVLaLPYD+b/EoPUc4/rqPleZeanHSkZheO8ny4+S3nr/9wPeX844i28rxXEX+J7npjV133xHVOa4v3FSv/nnx9u/vbEE8Vu9574T1/5fmC8JXnw+1YOf/0jqc7raec/++isTzvVdi6qF4079JcFWUVThcPSg+VavMnm5XdMzvm3nWE2mfTPnPeL1hT5flwC0U5PzE5UY3bxXc5P1rL815F/B3cMf1/2V8Xj73YaW3RpiJNmzDN+W7CFqyct1ILnl7gtDb9tHSNnzteJ59xcmiHipD009I1dtZY1WtUz2n9+y++r89nfR7iqWJHeUm5Zvx8hnavdTvH7edTWahFTcBJ0rW/u9b58/rO1Ts144EZcVnO91uez5udZ+5OG6e2OFXj54x3K+cHpTefeDMuy/nRXp73KqoCzu8Vl2Pl/GBl/JwojuXyfLhltfNXzn/jV284X4mOSTFQnvcqeiY5yu+emXUL1+nNJ98M8VTRyUJ5Ptyad22u0fmjnc7P+t1LGGtioTzvVdQFnOR/1/PnMz83X863VJ4Pt7aXtnX+2OS3DRIrYqU871VUBpzkv7e2aNIifTLFZjnfYnk+3Drf0Nm5nO+3zxvtYqk871XUBpz0nV9eA8dy/rPv6os3bJXzLZfnw+2i0Rep7wN9ndb6fVGJVrFWnvcqqgNOOvr2d47j29+gNO9387T2PRvl/Hgoz4dbvwf76dI7fZTzHU8LRKNYLM97FfUBJ/k7gRmsPHKr6m2fu132jhbxVJ4Pt0G/HaTzbnYr5/u5sBNNYrU871VMBJx05BL0ra+6lfOP3cXVdeNipMVbeT7cAoGAbnzmRrXv095pvZ+tOdEglsvzXsXUM/6cq845cjXM4V1I6aFS5d+br2+2fhOGycIoTsvz4ZaYnKjb/3m7Wl3gWM73sbk6kmK9PO9VTAWc5L+cP/Xuqfr2q9gp58dzeT7cktOSNaZgjHM53089LhIslOe9ioqyvVfNuzZXeUm508WDf5Xze0V/OZ/yfPglpyar4wD3cv7OVTuVlJKkrHZZYZgudKyU572KuXdwx/R/pL8uuNXt1aRoU5Gm3Rfd5XzK8zUnPTNdY2e7l/P9vMuuCZbK817FbMAFAgENfnqwfnTNj5zW71y9UzMejM5yPuX5mue3nO/nPGk4WSvPexWzAScd6VMOf2W4zv4vx3L+p1s0+5HZUVXOpzwfOVntspQ7M1e16jiU831e6Q4Lg+V5r2J38qOSUpI0auoonXme256cte+v1Vt/fCvEU7mhPB95Lbq1OFLOT4n9cr7F8rxXMR9w0tFd1TPcd1UvK1ymD/76QYin8obyfPRoe1lbDXtxmHM5f8YDM7Rnc2TL+VbL816ZCDjJfy/uo1c+0pLX3J4QflGejz5dBnfR9U9e77S2eF+xpt4TuXK+5fK8V2YCTvJfzn/nmXdqvJxPeT569byjp79y/j01X863Xp73ylTAST7fXtdwOZ/yfPTr92A/XTL+Eqe1e7fVbDk/HsrzXpkLOElqck4TjZo6KqrL+ZTnY8c1j1+j7sO6O639av1XKnyoMOzl/Hgpz3tlMuAkKbtXdtSW8ynPx5ZAIKCbnr1J7a5s57R+y9ItYS3nx1N53ivTfyHnXHWOhr0wLLrK+ZTnY1JicqJGTRmllj1aOq1f/8F6zX089OX8eCvPe2U64CSp203ddO3vr3VaW7yv2Fc5+Xgoz8eu5LRk5Rbm6vQOjuX8uSv13gvvhWyeeCzPexWTZXuvmndtrrLiMq17f53ntSUHSrTp403K7um/nO+rPH865flokJyarI4D3cv527/YruTUZGWd7a+cH6/lea/Mv4M7ZsCjA9RjZA+ntUUbizRtgr9yvu/y/BzK89EiPTNdebPynMv57z73rpbPdi/nx3N53qu4CbhAIKAhfx7iXs5ftVMFDxU4lfMpz9tz2pmnHdmOVN9tO9L8J9zOw8Z7ed6ruAk4yX85f/OSzZrz2BxP+4z8lOeTU5M1ZsYYyvNRqnH7xsqbleevnP+JhyvplOc9i59/6VFJKUm67Z+3qem5bqGx+q3V1S7n+y3PD39luFpf1NrzWtScFt1aaOTfRyoxOdHz2oryCs18eKZ2rdlVrZ+nPO9d3AWcJKWmp2rs7LFq1NaxnF+wrMquH+X5+JHTN8e5nF9aXKppE6ZVWc6nPO8mLgNOkk469SSNmzNOpzR169390BOO8nz86Tqka9jK+ZTn3cVtwElHvrfAVzn/OB8ZivcV+yrPXznhSsrzMarnHT3V5+d9nNaeqJxPed6fuA44ScpslakxBWOUmp7qffHRk74bPtog6Tv3AnMsz194+4WU52PcVQ9fpUvGuZfzp98/XaXFpZIoz4dCXGz0rUpG4wy16NZCH7/6sSrLvV3tDFYGtW7hOjVq20gLnlqgrUu3Os3QoX8H3fyX+Ll8b9lZvc/SrjW7tH35ds9rDxYd1M6VO1W3YV3NuH+G0wWqpJQkjc4freyLsz2vtSYwMTgxer6QIMKWvLZEz173rFspOiDnnmHby9oqtzDX6TbZiE7lpeV66qqn3O8v6Ph8SkhM0MjJI533e1oT9x9Rv6vTjzs5l/Ndw61Zl2YaPdXtOwAQvY59V4hrOd/l+RQIBDT4KfdvmrOIgPuebkO7qf8j/WvkWI3OaqSxs8ZSnjcqpXaKr3K+V/FQnveKgDuOy++5XL1/Gt4rmfVPr6+xs8eqzikO38OJmJFWL025M3N1avNTw3qcXrm9dMW9V4T1GLGIgDuBgb8aqPNuOS8sj52ema47591JeT5OZGRlaNwb45y3I1Wl+7Duuu4P8VGe94qAO4Fjd3HtNCi0bYLUuqnKm5WnBq0bhPRxEd0yW2Vq/NzxbuX8H5DTL0dDn+PW9SdCwP2AhMQEjfjbCJ3V+6yQPB7l+fjWuH1j5c10K+cfTzyW573iN1OFpJQk3T7ldt+hRHkektSiewuNnDzSdyjFa3neKwKuGlLT/X2sDAQCGvr8UMrzkHTkY+Ww5x23I+k7H3fjsDzvFQFXTemZ6bpz/p1O5fyBvx7o/LVzsKnb0G5O5fyMxhkaP2e80jPTwzCVPQScB8fK+V6eXJTncSI9x/TUlROurPbPU573joDzKLNVpnILq/fNVpTnUZWrf3G1Lh57cZU/R3neDQHnoFnnZsotyFVq3RPfgeT84efrhj/dUINTIVZd8/g1On/4ie//l1o3VXkz80x+83y4Ubb3oWhTkQofKtRn+Z/p0N5DSkhMULPOzXTJnZeY/jJdhMfH//hY8383XxsXb1RlRaVqZ9RWhwEd1PeBvs43Zo13BFyIHPrmkJLTkrlsD9/KDpeprLgs5JuC4xG3sAgRnowIleRUXihDhXNwAMwi4ACYRcABMIuAA2AWAQfALAIOgFkEHACzCDgAZhFwAMwi4ACYRcABMIuAA2AWAQfALAIOgFkEHACzCDgAZhFwAMwi4ACYRcABMIuAA2AWAQfALAIOgFkEHACzCDgAZhFwAMwi4ACYRcABMIuAA2AWAQfALAIOgFkEHACzCDgAZhFwAMz6P/G7V91HkHO1AAAAAElFTkSuQmCC;" vertex="1" parent="1">
                    <mxGeometry x="-412" y="123" width="56" height="56.54" as="geometry"/>
                </mxCell>
                <mxCell id="49" value="pullDown" style="text;html=1;strokeColor=none;fillColor=none;align=center;verticalAlign=middle;whiteSpace=wrap;rounded=0;fontSize=8;fontColor=#080808;" vertex="1" parent="1">
                    <mxGeometry x="-415" y="92.54" width="60" height="30" as="geometry"/>
                </mxCell>
                <mxCell id="50" value="05:15&amp;nbsp;" style="text;html=1;strokeColor=none;fillColor=none;align=center;verticalAlign=middle;whiteSpace=wrap;rounded=0;fontSize=14;fontColor=#FFFFFF;" vertex="1" parent="1">
                    <mxGeometry x="-494" y="71" width="102" height="30" as="geometry"/>
                </mxCell>
                <mxCell id="54" value="" style="points=[[0.145,0.145,0],[0.5,0,0],[0.855,0.145,0],[1,0.5,0],[0.855,0.855,0],[0.5,1,0],[0.145,0.855,0],[0,0.5,0]];shape=mxgraph.bpmn.event;html=1;verticalLabelPosition=bottom;labelBackgroundColor=#ffffff;verticalAlign=top;align=center;perimeter=ellipsePerimeter;outlineConnect=0;aspect=fixed;outline=end;symbol=cancel;fontSize=14;fontColor=#CCCCCC;" vertex="1" parent="1">
                    <mxGeometry x="-393" y="78" width="20" height="20" as="geometry"/>
                </mxCell>
                <mxCell id="55" value="" style="dashed=0;aspect=fixed;verticalLabelPosition=bottom;verticalAlign=top;align=center;shape=mxgraph.gmdl.edit;strokeColor=none;fillColor=#737373;shadow=0;sketch=0;fontSize=14;fontColor=#CCCCCC;" vertex="1" parent="1">
                    <mxGeometry x="-368" y="78" width="20" height="20" as="geometry"/>
                </mxCell>
                <mxCell id="56" value="" style="sketch=0;pointerEvents=1;shadow=0;dashed=0;html=1;strokeColor=none;fillColor=#505050;labelPosition=center;verticalLabelPosition=bottom;verticalAlign=top;outlineConnect=0;align=center;shape=mxgraph.office.concepts.book_journal;fontSize=14;fontColor=#CCCCCC;aspect=fixed;" vertex="1" parent="1">
                    <mxGeometry x="-345" y="77" width="20" height="23.9" as="geometry"/>
                </mxCell>
            </root>
        </mxGraphModel>
    </diagram>
</mxfile>